<?xml version="1.0" encoding="UTF-8" standalone="no"?>
<!-- Created with Inkscape (http://www.inkscape.org/) -->

<svg
   xmlns:dc="http://purl.org/dc/elements/1.1/"
   xmlns:cc="http://creativecommons.org/ns#"
   xmlns:rdf="http://www.w3.org/1999/02/22-rdf-syntax-ns#"
   xmlns:svg="http://www.w3.org/2000/svg"
   xmlns="http://www.w3.org/2000/svg"
   xmlns:xlink="http://www.w3.org/1999/xlink"
   xmlns:sodipodi="http://sodipodi.sourceforge.net/DTD/sodipodi-0.dtd"
   xmlns:inkscape="http://www.inkscape.org/namespaces/inkscape"
   width="64.177879"
   height="64.177879"
   id="svg3662"
   version="1.1"
   inkscape:version="0.48.1 r9760"
   inkscape:export-filename="/home/klange/Documents/admin_acm.png"
   inkscape:export-xdpi="179.5"
   inkscape:export-ydpi="179.5"
   sodipodi:docname="New document 6">
  <defs
     id="defs3664">
    <linearGradient
       inkscape:collect="always"
       xlink:href="#linearGradient12180"
       id="linearGradient7070"
       gradientUnits="userSpaceOnUse"
       x1="-28.090416"
       y1="-1.6459522"
       x2="-12.643988"
       y2="-17.092381" />
    <linearGradient
       id="linearGradient12180">
      <stop
         style="stop-color:#b2281a;stop-opacity:1;"
         offset="0"
         id="stop12182" />
      <stop
         style="stop-color:#ffa4a3;stop-opacity:1;"
         offset="1"
         id="stop12184" />
    </linearGradient>
    <linearGradient
       inkscape:collect="always"
       xlink:href="#linearGradient12180"
       id="linearGradient7072"
       gradientUnits="userSpaceOnUse"
       x1="-28.789349"
       y1="7.846436"
       x2="-13.637059"
       y2="7.846436" />
    <linearGradient
       inkscape:collect="always"
       xlink:href="#linearGradient12180"
       id="linearGradient3711"
       gradientUnits="userSpaceOnUse"
       x1="-28.090416"
       y1="-1.6459522"
       x2="-12.643988"
       y2="-17.092381"
       gradientTransform="matrix(2.9379356,0,0,2.9379356,-167.09681,949.44529)" />
  </defs>
  <sodipodi:namedview
     id="base"
     pagecolor="#ffffff"
     bordercolor="#666666"
     borderopacity="1.0"
     inkscape:pageopacity="0.0"
     inkscape:pageshadow="2"
     inkscape:zoom="5.6"
     inkscape:cx="14.335586"
     inkscape:cy="16.965309"
     inkscape:document-units="px"
     inkscape:current-layer="layer1"
     showgrid="false"
     fit-margin-top="0"
     fit-margin-left="0"
     fit-margin-right="0"
     fit-margin-bottom="0"
     inkscape:window-width="1440"
     inkscape:window-height="840"
     inkscape:window-x="0"
     inkscape:window-y="32"
     inkscape:window-maximized="1" />
  <metadata
     id="metadata3667">
    <rdf:RDF>
      <cc:Work
         rdf:about="">
        <dc:format>image/svg+xml</dc:format>
        <dc:type
           rdf:resource="http://purl.org/dc/dcmitype/StillImage" />
        <dc:title></dc:title>
      </cc:Work>
    </rdf:RDF>
  </metadata>
  <g
     inkscape:label="Layer 1"
     inkscape:groupmode="layer"
     id="layer1"
     transform="translate(-459.33963,-780.27325)">
    <rect
       style="fill:url(#linearGradient3711);fill-opacity:1;stroke:none"
       id="rect12178"
       width="45.380611"
       height="45.380611"
       x="-249.62463"
       y="899.229"
       transform="matrix(0.70710678,-0.70710678,0.70710678,0.70710678,0,0)" />
    <path
       transform="matrix(2.3258657,0,0,2.3258657,541.94497,795.30013)"
       d="m -13.637059,7.846436 a 7.5761442,7.5761442 0 1 1 -15.152289,0 7.5761442,7.5761442 0 1 1 15.152289,0 z"
       sodipodi:ry="7.5761442"
       sodipodi:rx="7.5761442"
       sodipodi:cy="7.846436"
       sodipodi:cx="-21.213203"
       id="path12211"
       style="fill:#b93b2e;fill-opacity:1;stroke:none"
       sodipodi:type="arc" />
    <path
       sodipodi:type="arc"
       style="fill:#ffffff;fill-opacity:1;stroke:none"
       id="path12188"
       sodipodi:cx="-21.213203"
       sodipodi:cy="7.846436"
       sodipodi:rx="7.5761442"
       sodipodi:ry="7.5761442"
       d="m -13.637059,7.846436 a 7.5761442,7.5761442 0 1 1 -15.152289,0 7.5761442,7.5761442 0 1 1 15.152289,0 z"
       transform="matrix(2.3258657,0,0,2.3258657,540.77641,794.13157)" />
    <path
       transform="matrix(0.53924895,2.0125049,-2.0125049,0.53924895,518.66754,850.84182)"
       d="m -13.637059,7.846436 a 7.5761442,7.5761442 0 1 1 -15.152289,0 7.5761442,7.5761442 0 1 1 15.152289,0 z"
       sodipodi:ry="7.5761442"
       sodipodi:rx="7.5761442"
       sodipodi:cy="7.846436"
       sodipodi:cx="-21.213203"
       id="path12190"
       style="fill:url(#linearGradient7072);fill-opacity:1;stroke:none"
       sodipodi:type="arc" />
    <path
       sodipodi:nodetypes="ccssssccssccsssssssssccsssccsssssssccccsssssssccsssssssccccsscssssccccssssccccssssscccc"
       id="path12209"
       d="m 479.83275,810.20375 -2.03837,6.5e-4 c 0.0669,-0.84113 0.45351,-1.98618 0.95321,-2.37935 0.49969,-0.39314 1.2421,-0.58972 2.22722,-0.58973 0.89469,10e-6 1.99705,0.11955 2.43489,0.35862 0.43782,0.23378 0.74478,0.53396 0.92087,0.90054 0.18083,0.36128 0.27126,1.02805 0.27126,2.0003 l -0.0215,2.61394 c -10e-6,0.74381 0.0288,1.29406 0.0928,1.64965 0.037,0.20601 0.0994,0.57189 0.357,0.7721 0.0589,0.0458 0.0235,0.22777 0.03,0.37102 -0.15774,0.0222 -1.5289,0.0116 -2.2829,0.023 -0.0523,-0.14876 -0.11661,-0.36925 -0.19273,-0.66145 -0.0333,-0.13283 -0.0571,-0.22049 -0.0714,-0.26299 -0.34266,0.3719 -0.96157,0.80002 -1.35181,0.98597 -0.39024,0.18595 -0.76075,0.15269 -1.20334,0.15269 -0.78048,0 -1.35087,-0.29381 -1.80297,-0.76666 -0.44735,-0.47284 -0.67103,-1.07054 -0.67103,-1.7931 0,-0.47815 0.10233,-0.90318 0.30696,-1.27509 0.20463,-0.37721 0.49018,-0.66411 0.85663,-0.86069 0.37119,-0.20188 0.90421,-0.37721 1.59903,-0.52597 0.93752,-0.19657 1.58713,-0.37987 1.94882,-0.54989 l 0,-0.22314 c -1e-5,-0.43034 -0.0952,-0.73583 -0.28554,-0.91647 -0.19038,-0.18595 -0.32014,-0.17563 -0.84839,-0.17564 -0.35693,10e-6 -0.60091,0.12561 -0.80078,0.28499 -0.19987,0.15408 -0.30431,0.4736 -0.42804,0.86674 m 2.64966,1.67929 c -0.25698,0.0956 -0.48027,0.23282 -1.10593,0.33121 -0.56548,0.0889 -1.13892,0.28594 -1.31024,0.41345 -0.26175,0.20721 -0.39262,0.47019 -0.39262,0.78896 0,0.31347 -0.0789,0.51556 0.13047,0.74402 0.20939,0.22845 0.47589,0.34268 0.79951,0.34268 0.36168,0 0.70671,-0.13282 1.03509,-0.39847 0.2427,-0.20188 0.67757,-0.33417 0.75371,-0.62638 0.0524,-0.19126 0.0785,-0.5552 0.0785,-1.0918 l 0.0115,-0.50367 m 10.49617,-1.39174 -2.17247,-0.003 c -0.0666,-0.44097 -0.24188,-0.8304 -0.47982,-1.05355 -0.23318,-0.22313 -0.54925,-0.26585 -0.92521,-0.26585 -0.4997,0 -0.86503,0.13654 -1.16484,0.52438 -0.29507,0.38253 -0.46555,0.91063 -0.46555,1.81381 0,1.00414 0.1499,1.71341 0.44973,2.12781 0.30458,0.41441 0.71147,0.62161 1.22069,0.62161 0.38072,0 0.69243,-0.11954 0.93515,-0.35862 0.2427,-0.24439 0.32222,-0.4434 0.42216,-1.03313 l 2.11943,0.007 c -0.20466,1.00945 -0.63169,1.95547 -1.21228,2.47082 -0.58061,0.51535 -1.39314,0.83041 -2.36874,0.83041 -1.10885,0 -2.1088,-0.31016 -2.7703,-1.09116 -0.65674,-0.78099 -0.98511,-2.03431 -0.98511,-3.41566 0,-1.39729 0.45699,-2.48377 1.11849,-3.25946 0.6615,-0.78099 1.5562,-1.17148 2.6841,-1.17149 0.92324,10e-6 1.85122,0.25758 2.39376,0.70385 0.54728,0.44098 1.03171,1.23048 1.20081,2.55212 m 0.93016,-3.04175 2.0784,-0.0229 0,1.15555 c 0.66151,-0.89787 1.2655,-1.27795 2.17924,-1.27796 0.48541,10e-6 1.02135,0.11158 1.37828,0.33472 0.35692,0.22314 0.6496,0.56051 0.87804,1.0121 0.33313,-0.45159 0.69243,-0.78895 1.07792,-1.0121 0.38547,-0.22314 0.79713,-0.33471 1.23496,-0.33472 0.5568,10e-6 1.16566,0.12752 1.55115,0.38253 0.38547,0.24971 0.67339,0.61896 0.86376,1.10774 0.138,0.36128 0.20701,0.9457 0.20701,1.75325 l 0,5.41118 -2.14364,0 0,-4.83739 c -2e-5,-0.83943 -0.20675,-1.24362 -0.34474,-1.48802 -0.18562,-0.31877 -0.47115,-0.47816 -0.85662,-0.47816 -0.28078,0 -0.54492,0.0956 -0.79238,0.28689 -0.24746,0.19127 -0.28824,0.33514 -0.39767,0.70703 -0.10947,0.3666 -0.16421,0.94836 -0.16418,1.74529 l 0,4.06436 -2.12068,0 0,-4.63815 c -10e-6,-0.8235 -0.15045,-1.19412 -0.22185,-1.4332 -0.0714,-0.23908 -0.18324,-0.41706 -0.33551,-0.53395 -0.14754,-0.11687 -0.34979,-0.17532 -0.60677,-0.17532 -0.30934,10e-6 -0.58775,0.093 -0.83521,0.27893 -0.24746,0.18595 -0.20198,0.17263 -0.31143,0.52327 -0.10471,0.35066 -0.0826,0.98452 -0.0826,1.79739 l 0,4.11217 -2.23545,0.0229 0,-8.46343"
       style="font-size:4px;font-style:normal;font-weight:normal;fill:#b93b2e;fill-opacity:1;stroke:none;font-family:Bitstream Vera Sans"
       inkscape:connector-curvature="0" />
    <path
       style="font-size:4px;font-style:normal;font-weight:normal;fill:#ffffff;fill-opacity:1;stroke:none;font-family:Bitstream Vera Sans"
       d="m 479.3737,809.28564 -2.03838,6.6e-4 c 0.0669,-0.84113 0.45352,-1.98619 0.95322,-2.37935 0.49969,-0.39315 1.2421,-0.58972 2.22722,-0.58973 0.89469,10e-6 1.99705,0.11955 2.43489,0.35862 0.43782,0.23377 0.74477,0.53395 0.92087,0.90053 0.18083,0.36129 0.27126,1.02805 0.27126,2.00031 l -0.0215,2.61394 c -10e-6,0.7438 0.0288,1.29406 0.0928,1.64965 0.037,0.20601 0.0994,0.57189 0.357,0.7721 0.0589,0.0458 0.0235,0.22777 0.03,0.37102 -0.15774,0.0222 -1.5289,0.0116 -2.2829,0.023 -0.0524,-0.14876 -0.11661,-0.36925 -0.19273,-0.66146 -0.0333,-0.13282 -0.0571,-0.22048 -0.0714,-0.26299 -0.34266,0.3719 -0.96157,0.80002 -1.35181,0.98597 -0.39024,0.18595 -0.76076,0.15269 -1.20334,0.15269 -0.78049,0 -1.35087,-0.2938 -1.80297,-0.76665 -0.44736,-0.47285 -0.67103,-1.07055 -0.67103,-1.7931 0,-0.47816 0.10233,-0.90319 0.30696,-1.27509 0.20462,-0.37721 0.49018,-0.66411 0.85662,-0.86069 0.3712,-0.20189 0.90422,-0.37721 1.59903,-0.52598 0.93753,-0.19657 1.58713,-0.37986 1.94883,-0.54988 l 0,-0.22314 c -1e-5,-0.43034 -0.0952,-0.73583 -0.28554,-0.91648 -0.19038,-0.18594 -0.32015,-0.17563 -0.84839,-0.17563 -0.35693,0 -0.60091,0.1256 -0.80078,0.28498 -0.19987,0.15408 -0.30431,0.4736 -0.42804,0.86675 m 2.64966,1.67929 c -0.25698,0.0956 -0.48027,0.23281 -1.10593,0.3312 -0.56548,0.0889 -1.13892,0.28595 -1.31025,0.41345 -0.26174,0.20721 -0.39262,0.4702 -0.39262,0.78897 0,0.31346 -0.0789,0.51556 0.13048,0.74401 0.20938,0.22846 0.47589,0.34268 0.79951,0.34268 0.36168,0 0.70671,-0.13282 1.03509,-0.39846 0.2427,-0.20189 0.67756,-0.33418 0.75371,-0.62639 0.0523,-0.19126 0.0785,-0.55519 0.0785,-1.0918 l 0.0115,-0.50366 m 10.49617,-1.39174 -2.17247,-0.003 c -0.0666,-0.44096 -0.24189,-0.8304 -0.47982,-1.05354 -0.23319,-0.22314 -0.54926,-0.26585 -0.92521,-0.26586 -0.4997,10e-6 -0.86503,0.13655 -1.16485,0.52438 -0.29506,0.38254 -0.46554,0.91063 -0.46554,1.81382 0,1.00414 0.1499,1.71341 0.44973,2.12781 0.30457,0.41441 0.71147,0.62161 1.22069,0.62161 0.38072,0 0.69243,-0.11954 0.93515,-0.35862 0.2427,-0.24439 0.32222,-0.44341 0.42216,-1.03314 l 2.11943,0.007 c -0.20466,1.00945 -0.6317,1.95547 -1.21229,2.47082 -0.58061,0.51535 -1.39313,0.8304 -2.36873,0.8304 -1.10885,0 -2.1088,-0.31016 -2.7703,-1.09115 -0.65674,-0.781 -0.98511,-2.03431 -0.98511,-3.41567 0,-1.39728 0.45699,-2.48377 1.11849,-3.25945 0.6615,-0.78099 1.5562,-1.17149 2.68409,-1.1715 0.92324,10e-6 1.85123,0.25758 2.39377,0.70386 0.54728,0.44097 1.0317,1.23047 1.20081,2.55212 m 0.93016,-3.04176 2.0784,-0.0229 0,1.15555 c 0.66151,-0.89787 1.2655,-1.27795 2.17924,-1.27796 0.48541,10e-6 1.02135,0.11158 1.37828,0.33471 0.35692,0.22315 0.6496,0.56052 0.87804,1.01211 0.33312,-0.45159 0.69243,-0.78896 1.07792,-1.01211 0.38547,-0.22313 0.79712,-0.3347 1.23496,-0.33471 0.55679,10e-6 1.16566,0.12752 1.55115,0.38253 0.38547,0.24971 0.67339,0.61896 0.86376,1.10773 0.13799,0.36129 0.20701,0.9457 0.20701,1.75326 l 0,5.41117 -2.14365,0 0,-4.83738 c -1e-5,-0.83943 -0.20674,-1.24363 -0.34473,-1.48803 -0.18562,-0.31877 -0.47115,-0.47815 -0.85662,-0.47816 -0.28078,10e-6 -0.54492,0.0956 -0.79238,0.2869 -0.24746,0.19127 -0.28824,0.33513 -0.39768,0.70703 -0.10946,0.36659 -0.1642,0.94836 -0.16417,1.74528 l 0,4.06436 -2.12069,0 0,-4.63815 c 0,-0.82349 -0.15045,-1.19411 -0.22184,-1.4332 -0.0714,-0.23907 -0.18324,-0.41705 -0.33551,-0.53394 -0.14754,-0.11688 -0.34979,-0.17532 -0.60677,-0.17533 -0.30935,1e-5 -0.58775,0.093 -0.83521,0.27893 -0.24747,0.18596 -0.20199,0.20985 -0.31144,0.56049 -0.1047,0.35066 -0.0826,0.9473 -0.0826,1.76017 l 0,4.11218 -2.23545,0.0229 0,-8.46343"
       id="flowRoot12200"
       sodipodi:nodetypes="ccssssccssccsssssssssccsssccsssssssccccsssssssccsssssssccccsscssssccccssssccccssssscccc"
       inkscape:connector-curvature="0" />
  </g>
</svg>
