<?xml version="1.0" encoding="UTF-8" standalone="no"?>
<!-- Created with Inkscape (http://www.inkscape.org/) -->

<svg
   xmlns:dc="http://purl.org/dc/elements/1.1/"
   xmlns:cc="http://creativecommons.org/ns#"
   xmlns:rdf="http://www.w3.org/1999/02/22-rdf-syntax-ns#"
   xmlns:svg="http://www.w3.org/2000/svg"
   xmlns="http://www.w3.org/2000/svg"
   xmlns:xlink="http://www.w3.org/1999/xlink"
   xmlns:sodipodi="http://sodipodi.sourceforge.net/DTD/sodipodi-0.dtd"
   xmlns:inkscape="http://www.inkscape.org/namespaces/inkscape"
   width="64.177879"
   height="64.177879"
   id="svg3662"
   version="1.1"
   inkscape:version="0.48.1 r9760"
   inkscape:export-filename="/home/klange/Documents/acm.png"
   inkscape:export-xdpi="179.5"
   inkscape:export-ydpi="179.5"
   sodipodi:docname="acm-logo.svg">
  <defs
     id="defs3664">
    <linearGradient
       inkscape:collect="always"
       xlink:href="#linearGradient12180"
       id="linearGradient7070"
       gradientUnits="userSpaceOnUse"
       x1="-28.090416"
       y1="-1.6459522"
       x2="-12.643988"
       y2="-17.092381" />
    <linearGradient
       id="linearGradient12180">
      <stop
         style="stop-color:#1a53b2;stop-opacity:1"
         offset="0"
         id="stop12182" />
      <stop
         style="stop-color:#a3c3ff;stop-opacity:1"
         offset="1"
         id="stop12184" />
    </linearGradient>
    <linearGradient
       inkscape:collect="always"
       xlink:href="#linearGradient12180"
       id="linearGradient7072"
       gradientUnits="userSpaceOnUse"
       x1="-28.789349"
       y1="7.846436"
       x2="-13.637059"
       y2="7.846436" />
    <linearGradient
       inkscape:collect="always"
       xlink:href="#linearGradient12180"
       id="linearGradient3711"
       gradientUnits="userSpaceOnUse"
       x1="-28.090416"
       y1="-1.6459522"
       x2="-12.643988"
       y2="-17.092381"
       gradientTransform="matrix(2.9379356,0,0,2.9379356,-167.09681,949.44529)" />
  </defs>
  <sodipodi:namedview
     id="base"
     pagecolor="#ffffff"
     bordercolor="#666666"
     borderopacity="1.0"
     inkscape:pageopacity="0.0"
     inkscape:pageshadow="2"
     inkscape:zoom="7.9195959"
     inkscape:cx="33.200294"
     inkscape:cy="33.349026"
     inkscape:document-units="px"
     inkscape:current-layer="layer1"
     showgrid="false"
     fit-margin-top="0"
     fit-margin-left="0"
     fit-margin-right="0"
     fit-margin-bottom="0"
     inkscape:window-width="1440"
     inkscape:window-height="840"
     inkscape:window-x="0"
     inkscape:window-y="32"
     inkscape:window-maximized="1" />
  <metadata
     id="metadata3667">
    <rdf:RDF>
      <cc:Work
         rdf:about="">
        <dc:format>image/svg+xml</dc:format>
        <dc:type
           rdf:resource="http://purl.org/dc/dcmitype/StillImage" />
        <dc:title></dc:title>
      </cc:Work>
    </rdf:RDF>
  </metadata>
  <g
     inkscape:label="Layer 1"
     inkscape:groupmode="layer"
     id="layer1"
     transform="translate(-459.33963,-780.27325)">
    <rect
       style="fill:url(#linearGradient3711);fill-opacity:1;stroke:none"
       id="rect12178"
       width="45.380611"
       height="45.380611"
       x="-249.62463"
       y="899.229"
       transform="matrix(0.70710678,-0.70710678,0.70710678,0.70710678,0,0)" />
    <path
       transform="matrix(2.3258657,0,0,2.3258657,541.94497,795.30013)"
       d="m -13.637059,7.846436 c 0,4.184189 -3.391956,7.576144 -7.576144,7.576144 -4.184189,0 -7.576145,-3.391955 -7.576145,-7.576144 0,-4.1841889 3.391956,-7.57614419 7.576145,-7.57614419 4.184188,0 7.576144,3.39195529 7.576144,7.57614419 z"
       sodipodi:ry="7.5761442"
       sodipodi:rx="7.5761442"
       sodipodi:cy="7.846436"
       sodipodi:cx="-21.213203"
       id="path12211"
       style="fill:#285eb2;fill-opacity:1;stroke:none"
       sodipodi:type="arc" />
    <path
       sodipodi:type="arc"
       style="fill:#ffffff;fill-opacity:1;stroke:none"
       id="path12188"
       sodipodi:cx="-21.213203"
       sodipodi:cy="7.846436"
       sodipodi:rx="7.5761442"
       sodipodi:ry="7.5761442"
       d="m -13.637059,7.846436 c 0,4.184189 -3.391956,7.576144 -7.576144,7.576144 -4.184189,0 -7.576145,-3.391955 -7.576145,-7.576144 0,-4.1841889 3.391956,-7.57614419 7.576145,-7.57614419 4.184188,0 7.576144,3.39195529 7.576144,7.57614419 z"
       transform="matrix(2.3258657,0,0,2.3258657,540.77641,794.13157)" />
    <path
       transform="matrix(0.53924895,2.0125049,-2.0125049,0.53924895,518.66754,850.84182)"
       d="m -13.637059,7.846436 c 0,4.184189 -3.391956,7.576144 -7.576144,7.576144 -4.184189,0 -7.576145,-3.391955 -7.576145,-7.576144 0,-4.1841889 3.391956,-7.57614419 7.576145,-7.57614419 4.184188,0 7.576144,3.39195529 7.576144,7.57614419 z"
       sodipodi:ry="7.5761442"
       sodipodi:rx="7.5761442"
       sodipodi:cy="7.846436"
       sodipodi:cx="-21.213203"
       id="path12190"
       style="fill:url(#linearGradient7072);fill-opacity:1;stroke:none"
       sodipodi:type="arc" />
    <flowRoot
       transform="matrix(0.40945145,0,0,0.40945145,475.9299,847.4082)"
       style="font-size:45px;font-style:normal;font-variant:normal;font-weight:normal;font-stretch:normal;text-align:center;writing-mode:lr-tb;text-anchor:middle;color:#000000;fill:#335bc0;fill-opacity:1;fill-rule:nonzero;stroke:none;stroke-width:4;marker:none;visibility:visible;display:inline;overflow:visible;enable-background:accumulate;font-family:Laffayette Comic Pro;-inkscape-font-specification:Laffayette Comic Pro"
       id="flowRoot3778"
       xml:space="preserve"><flowRegion
         id="flowRegion3780"><rect
           style="fill:#335bc0;fill-opacity:1"
           y="-79.263786"
           x="-185.36299"
           height="195.46452"
           width="446.48743"
           id="rect3782" /></flowRegion><flowPara
         style="font-size:16px;fill:#335bc0;fill-opacity:1"
         id="flowPara3784">@UIUC</flowPara></flowRoot>    <path
       sodipodi:nodetypes="ccssssccssccsssssssssccsssccsssssssccccsssssssccsssssssccccsscssssccccssssccccssssscccc"
       id="path12209"
       d="m 481.32191,807.89981 -1.79028,5.7e-4 c 0.0587,-0.73875 0.39831,-1.74444 0.83719,-2.08976 0.43887,-0.34529 1.09093,-0.51794 1.95615,-0.51795 0.7858,10e-6 1.75399,0.105 2.13854,0.31497 0.38453,0.20533 0.65413,0.46897 0.80879,0.79094 0.15882,0.31731 0.23824,0.90292 0.23824,1.75684 l -0.0189,2.2958 c -1e-5,0.65328 0.0253,1.13656 0.0815,1.44887 0.0325,0.18094 0.0873,0.50229 0.31355,0.67813 0.0517,0.0402 0.0206,0.20005 0.0263,0.32586 -0.13854,0.0195 -1.34281,0.0102 -2.00504,0.0202 -0.0459,-0.13065 -0.10242,-0.32431 -0.16928,-0.58094 -0.0292,-0.11666 -0.0502,-0.19366 -0.0627,-0.23098 -0.30095,0.32663 -0.84453,0.70265 -1.18728,0.86596 -0.34274,0.16332 -0.66816,0.13411 -1.05688,0.13411 -0.68549,0 -1.18646,-0.25805 -1.58353,-0.67335 -0.3929,-0.41529 -0.58936,-0.94024 -0.58936,-1.57486 0,-0.41996 0.0899,-0.79326 0.2696,-1.1199 0.17972,-0.3313 0.43052,-0.58328 0.75237,-0.75594 0.32601,-0.17731 0.79416,-0.3313 1.40441,-0.46195 0.82342,-0.17265 1.39396,-0.33364 1.71163,-0.48296 l 0,-0.19599 c -10e-6,-0.37796 -0.0836,-0.64627 -0.25079,-0.80492 -0.1672,-0.16332 -0.28117,-0.15426 -0.74513,-0.15427 -0.31349,10e-6 -0.52777,0.11033 -0.70332,0.25031 -0.17554,0.13533 -0.26727,0.41596 -0.37594,0.76125 m 2.32717,1.4749 c -0.2257,0.084 -0.42181,0.20449 -0.97133,0.2909 -0.49665,0.0781 -1.0003,0.25114 -1.15077,0.36313 -0.22989,0.18199 -0.34483,0.41296 -0.34483,0.69294 0,0.27531 -0.0693,0.45281 0.11459,0.65346 0.1839,0.20065 0.41797,0.30097 0.7022,0.30097 0.31766,0 0.6207,-0.11665 0.90911,-0.34997 0.21316,-0.17731 0.5951,-0.2935 0.66198,-0.55014 0.046,-0.16798 0.0689,-0.48763 0.0689,-0.95892 l 0.0101,-0.44237 m 9.21869,-1.22235 -1.90806,-0.003 c -0.0585,-0.3873 -0.21244,-0.72934 -0.42142,-0.92533 -0.2048,-0.19597 -0.4824,-0.23349 -0.81261,-0.23349 -0.43888,0 -0.75974,0.11992 -1.02306,0.46056 -0.25916,0.33597 -0.40889,0.79979 -0.40889,1.59305 0,0.88193 0.13165,1.50487 0.39499,1.86883 0.26751,0.36398 0.62488,0.54596 1.07212,0.54596 0.33438,0 0.60816,-0.10499 0.82133,-0.31497 0.21317,-0.21465 0.28301,-0.38944 0.37078,-0.90739 l 1.86148,0.006 c -0.17975,0.88659 -0.55481,1.71747 -1.06474,2.17009 -0.50994,0.45263 -1.22358,0.72934 -2.08044,0.72934 -0.97389,0 -1.85214,-0.27241 -2.43312,-0.95835 -0.57681,-0.68594 -0.86522,-1.78672 -0.86522,-2.99994 0,-1.22723 0.40137,-2.18147 0.98236,-2.86275 0.58099,-0.68594 1.3668,-1.0289 2.35742,-1.02891 0.81087,10e-6 1.62591,0.22623 2.10242,0.61818 0.48067,0.38731 0.90614,1.08072 1.05466,2.2415 m 0.81695,-2.67154 1.82544,-0.0201 0,1.01491 c 0.58099,-0.78859 1.11147,-1.12241 1.914,-1.12242 0.42633,10e-6 0.89704,0.098 1.21053,0.29398 0.31348,0.19598 0.57054,0.49229 0.77118,0.88892 0.29258,-0.39663 0.60815,-0.69293 0.94672,-0.88892 0.33856,-0.19598 0.70011,-0.29397 1.08466,-0.29398 0.48903,10e-6 1.02378,0.112 1.36236,0.33597 0.33855,0.21932 0.59143,0.54363 0.75863,0.97292 0.1212,0.31731 0.18181,0.8306 0.18181,1.53986 l 0,4.75259 -1.88274,0 0,-4.24863 c -10e-6,-0.73727 -0.18158,-1.09226 -0.30278,-1.30692 -0.16303,-0.27997 -0.4138,-0.41996 -0.75236,-0.41996 -0.2466,0 -0.4786,0.084 -0.69594,0.25197 -0.21734,0.16799 -0.25316,0.29435 -0.34927,0.62098 -0.0961,0.32198 -0.14422,0.83294 -0.1442,1.53287 l 0,3.56969 -1.86257,0 0,-4.07364 c -10e-6,-0.72328 -0.13214,-1.04879 -0.19485,-1.25877 -0.0627,-0.20998 -0.16093,-0.3663 -0.29467,-0.46896 -0.12959,-0.10265 -0.30722,-0.15398 -0.53292,-0.15398 -0.27169,1e-5 -0.51622,0.0817 -0.73356,0.24498 -0.21734,0.16332 -0.1774,0.15162 -0.27353,0.45958 -0.092,0.30798 -0.0725,0.8647 -0.0725,1.57863 l 0,3.61168 -1.96338,0.0201 0,-7.43335"
       style="font-size:4px;font-style:normal;font-weight:normal;fill:#335bc0;fill-opacity:1;stroke:none;font-family:Bitstream Vera Sans"
       inkscape:connector-curvature="0" />
    <path
       style="font-size:4px;font-style:normal;font-weight:normal;fill:#ffffff;fill-opacity:1;stroke:none;font-family:Bitstream Vera Sans"
       d="m 480.91873,807.09345 -1.79029,5.8e-4 c 0.0588,-0.73876 0.39832,-1.74446 0.8372,-2.08976 0.43888,-0.3453 1.09093,-0.51795 1.95615,-0.51796 0.7858,10e-6 1.75399,0.105 2.13854,0.31497 0.38453,0.20532 0.65412,0.46897 0.80879,0.79093 0.15882,0.31732 0.23824,0.90293 0.23824,1.75685 l -0.0189,2.2958 c -10e-6,0.65327 0.0253,1.13656 0.0815,1.44887 0.0325,0.18094 0.0873,0.50229 0.31355,0.67813 0.0517,0.0402 0.0206,0.20005 0.0263,0.32586 -0.13855,0.0195 -1.34282,0.0102 -2.00505,0.0202 -0.046,-0.13066 -0.10242,-0.32431 -0.16928,-0.58096 -0.0292,-0.11665 -0.0501,-0.19364 -0.0627,-0.23098 -0.30095,0.32664 -0.84453,0.70265 -1.18728,0.86597 -0.34274,0.16332 -0.66817,0.1341 -1.05688,0.1341 -0.6855,0 -1.18646,-0.25804 -1.58353,-0.67334 -0.39291,-0.4153 -0.58936,-0.94025 -0.58936,-1.57486 0,-0.41996 0.0899,-0.79326 0.2696,-1.1199 0.17972,-0.3313 0.43052,-0.58328 0.75236,-0.75593 0.32602,-0.17732 0.79417,-0.3313 1.40441,-0.46197 0.82343,-0.17264 1.39396,-0.33363 1.71164,-0.48295 l 0,-0.19598 c -10e-6,-0.37797 -0.0836,-0.64628 -0.25078,-0.80494 -0.16721,-0.16331 -0.28119,-0.15425 -0.74514,-0.15425 -0.31349,0 -0.52777,0.11031 -0.70331,0.25029 -0.17555,0.13533 -0.26728,0.41596 -0.37595,0.76126 m 2.32717,1.4749 c -0.2257,0.084 -0.42181,0.20448 -0.97133,0.29089 -0.49665,0.0781 -1.0003,0.25115 -1.15078,0.36313 -0.22988,0.18199 -0.34483,0.41298 -0.34483,0.69295 0,0.27531 -0.0693,0.45281 0.1146,0.65345 0.1839,0.20066 0.41797,0.30098 0.7022,0.30098 0.31766,0 0.6207,-0.11666 0.90911,-0.34997 0.21316,-0.17731 0.5951,-0.2935 0.66198,-0.55015 0.0459,-0.16798 0.0689,-0.48762 0.0689,-0.95892 l 0.0101,-0.44236 m 9.21869,-1.22235 -1.90806,-0.003 c -0.0585,-0.38729 -0.21245,-0.72933 -0.42142,-0.92532 -0.20481,-0.19598 -0.48241,-0.23349 -0.81261,-0.2335 -0.43888,10e-6 -0.75974,0.11993 -1.02307,0.46056 -0.25915,0.33598 -0.40888,0.7998 -0.40888,1.59306 0,0.88193 0.13165,1.50487 0.39499,1.86883 0.2675,0.36398 0.62488,0.54596 1.07212,0.54596 0.33438,0 0.60816,-0.10499 0.82134,-0.31497 0.21316,-0.21465 0.283,-0.38945 0.37077,-0.9074 l 1.86148,0.006 c -0.17975,0.88659 -0.55482,1.71747 -1.06474,2.17009 -0.50995,0.45263 -1.22358,0.72934 -2.08044,0.72934 -0.97389,0 -1.85213,-0.27241 -2.43312,-0.95835 -0.57681,-0.68594 -0.86522,-1.78671 -0.86522,-2.99995 0,-1.22722 0.40137,-2.18147 0.98236,-2.86274 0.58099,-0.68594 1.3668,-1.02891 2.35741,-1.02892 0.81088,10e-6 1.62592,0.22623 2.10243,0.61819 0.48067,0.3873 0.90613,1.08071 1.05466,2.24151 m 0.81695,-2.67155 1.82544,-0.0201 0,1.01491 c 0.58099,-0.78859 1.11147,-1.12241 1.914,-1.12242 0.42633,1e-5 0.89704,0.098 1.21053,0.29398 0.31348,0.19599 0.57054,0.49229 0.77118,0.88892 0.29257,-0.39663 0.60815,-0.69293 0.94672,-0.88892 0.33856,-0.19598 0.70011,-0.29397 1.08466,-0.29398 0.48902,1e-5 1.02378,0.112 1.36236,0.33598 0.33855,0.21931 0.59143,0.54362 0.75863,0.9729 0.12119,0.31732 0.18181,0.8306 0.18181,1.53988 l 0,4.75257 -1.88274,0 0,-4.24862 c -1e-5,-0.73726 -0.18158,-1.09227 -0.30278,-1.30692 -0.16302,-0.27998 -0.4138,-0.41996 -0.75236,-0.41997 -0.2466,10e-6 -0.4786,0.084 -0.69594,0.25199 -0.21734,0.16799 -0.25316,0.29434 -0.34928,0.62097 -0.0961,0.32198 -0.14421,0.83294 -0.14418,1.53287 l 0,3.56968 -1.86259,0 0,-4.07364 c 0,-0.72326 -0.13214,-1.04877 -0.19484,-1.25876 -0.0627,-0.20998 -0.16093,-0.3663 -0.29467,-0.46896 -0.12958,-0.10265 -0.30722,-0.15398 -0.53292,-0.15399 -0.2717,10e-6 -0.51622,0.0817 -0.73356,0.24498 -0.21735,0.16333 -0.1774,0.18431 -0.27353,0.49227 -0.092,0.30799 -0.0725,0.83201 -0.0725,1.54595 l 0,3.61168 -1.96337,0.0201 0,-7.43335"
       id="flowRoot12200"
       sodipodi:nodetypes="ccssssccssccsssssssssccsssccsssssssccccsssssssccsssssssccccsscssssccccssssccccssssscccc"
       inkscape:connector-curvature="0" />
    <flowRoot
       xml:space="preserve"
       id="flowRoot3002"
       style="font-size:45px;font-style:normal;font-variant:normal;font-weight:normal;font-stretch:normal;text-align:center;writing-mode:lr-tb;text-anchor:middle;color:#000000;fill:#ffffff;fill-opacity:1;fill-rule:nonzero;stroke:none;stroke-width:4;marker:none;visibility:visible;display:inline;overflow:visible;enable-background:accumulate;font-family:Laffayette Comic Pro;-inkscape-font-specification:Laffayette Comic Pro"
       transform="matrix(0.40945145,0,0,0.40945145,475.48796,846.90312)"><flowRegion
         id="flowRegion3004"><rect
           id="rect3006"
           width="446.48743"
           height="195.46452"
           x="-185.36299"
           y="-79.263786"
           style="fill:#ffffff;fill-opacity:1" /></flowRegion><flowPara
         id="flowPara3008"
         style="font-size:16px;fill:#ffffff;fill-opacity:1">@UIUC</flowPara></flowRoot>  </g>
</svg>
