<?xml version="1.0" encoding="UTF-8" standalone="no"?>
<!-- Created with Inkscape (http://www.inkscape.org/) -->

<svg
   xmlns:dc="http://purl.org/dc/elements/1.1/"
   xmlns:cc="http://creativecommons.org/ns#"
   xmlns:rdf="http://www.w3.org/1999/02/22-rdf-syntax-ns#"
   xmlns:svg="http://www.w3.org/2000/svg"
   xmlns="http://www.w3.org/2000/svg"
   xmlns:sodipodi="http://sodipodi.sourceforge.net/DTD/sodipodi-0.dtd"
   xmlns:inkscape="http://www.inkscape.org/namespaces/inkscape"
   width="1230.1815"
   height="192.57027"
   id="svg3458"
   version="1.1"
   inkscape:version="0.48.1 r9760"
   sodipodi:docname="New document 3">
  <defs
     id="defs3460" />
  <sodipodi:namedview
     id="base"
     pagecolor="#ffffff"
     bordercolor="#666666"
     borderopacity="1.0"
     inkscape:pageopacity="0.0"
     inkscape:pageshadow="2"
     inkscape:zoom="0.35"
     inkscape:cx="615.09073"
     inkscape:cy="96.314888"
     inkscape:document-units="px"
     inkscape:current-layer="layer1"
     showgrid="false"
     fit-margin-top="0"
     fit-margin-left="0"
     fit-margin-right="0"
     fit-margin-bottom="0"
     inkscape:window-width="1440"
     inkscape:window-height="840"
     inkscape:window-x="0"
     inkscape:window-y="32"
     inkscape:window-maximized="1" />
  <metadata
     id="metadata3463">
    <rdf:RDF>
      <cc:Work
         rdf:about="">
        <dc:format>image/svg+xml</dc:format>
        <dc:type
           rdf:resource="http://purl.org/dc/dcmitype/StillImage" />
        <dc:title></dc:title>
      </cc:Work>
    </rdf:RDF>
  </metadata>
  <g
     inkscape:label="Layer 1"
     inkscape:groupmode="layer"
     id="layer1"
     transform="translate(240.09073,-436.1068)">
    <g
       transform="translate(-725.34847,2516.6672)"
       id="g3289">
      <g
         transform="matrix(0.50590967,0,0,-0.50590967,218.52319,-599.28124)"
         id="g5213">
        <g
           transform="matrix(1.9159362,0,0,1.9159362,802.39315,2632.8318)"
           id="g14">
          <path
             inkscape:connector-curvature="0"
             id="path16"
             style="fill:#718ccf;fill-opacity:1;fill-rule:nonzero;stroke:none"
             d="m 0,0 -0.004,-0.241 -0.113,-0.471 -0.733,-2.156 -1.322,-3.406 -1.517,-3.688 -1.37,-3.182 -0.871,-1.877 -0.121,-0.199 -0.019,0.053 0.06,0.281 0.567,1.944 0.949,3.037 1.09,3.42 0.976,3.097 0.615,2.055 0.086,0.354 0.02,0.158 0.01,0.269 -0.018,0.247 -0.051,0.298 -0.06,0.256 -0.024,0.127 -0.005,0.061 10e-4,0.052 0.01,0.047 0.02,0.045 0.031,0.035 0.043,0.033 0.059,0.026 0.072,0.017 0.09,0.016 L -1.4,0.716 -1.229,0.708 -1.025,0.681 -0.824,0.632 -0.641,0.565 -0.49,0.496 -0.363,0.418 -0.26,0.339 -0.168,0.249 -0.086,0.151 0,0 z" />
        </g>
        <g
           transform="matrix(1.9159362,0,0,1.9159362,732.71974,2679.1342)"
           id="g18">
          <path
             inkscape:connector-curvature="0"
             id="path20"
             style="fill:#718ccf;fill-opacity:1;fill-rule:nonzero;stroke:none"
             d="m 0,0 -2.158,-0.651 -3.651,-0.297 -9.024,0.196 -22.204,2.037 -25.594,3.38 -23.692,3.749 -16.49,3.162 -3.27,0.844 -1.166,0.521 0.528,0.323 2,0.222 13.132,0.202 20.292,-0.254 22.902,-0.386 20.965,-0.202 14.474,0.318 2.598,0.274 1.682,0.375 2.889,0.916 3.029,1.33 3.41,1.92 2.723,1.726 1.453,0.852 0.635,0.297 0.555,0.181 0.488,0.058 L 6.934,21.014 7.295,20.782 7.6,20.364 7.84,19.743 8.014,18.945 8.121,17.905 8.123,16.236 7.906,14.005 7.361,11.297 6.576,8.781 5.617,6.543 4.619,4.755 3.559,3.243 2.521,2.051 1.371,0.984 0,0 z" />
        </g>
        <g
           transform="matrix(1.9159362,0,0,1.9159362,747.55694,2656.8653)"
           id="g22">
          <path
             inkscape:connector-curvature="0"
             id="path24"
             style="fill:#718ccf;fill-opacity:1;fill-rule:nonzero;stroke:none"
             d="m 0,0 -1.393,-0.596 -2.498,-0.484 -6.666,-0.589 -15.967,-0.364 -18.461,0.244 -17.084,0.629 -11.828,0.781 -2.277,0.285 -0.804,0.239 0.419,0.238 1.476,0.285 9.541,1.076 14.631,1.315 16.405,1.427 14.862,1.428 9.83,1.272 1.759,0.384 1.065,0.387 1.582,0.737 1.672,1.008 1.785,1.343 1.685,1.489 1.241,1.089 0.406,0.293 0.334,0.185 0.305,0.097 0.281,0 L 2.557,14.094 2.795,13.861 3.016,13.494 3.211,13.002 3.391,12.35 3.564,11.343 3.668,9.912 3.617,8.129 3.393,6.441 3.023,4.904 2.584,3.662 2.078,2.592 1.535,1.701 0.912,0.895 0,0 z" />
        </g>
        <g
           transform="matrix(1.9159362,0,0,1.9159362,763.28103,2641.9943)"
           id="g26">
          <path
             inkscape:connector-curvature="0"
             id="path28"
             style="fill:#718ccf;fill-opacity:1;fill-rule:nonzero;stroke:none"
             d="m 0,0 -1.033,-0.678 -1.992,-0.744 -5.467,-1.415 -13.38,-2.559 -15.627,-2.42 -14.546,-1.93 -10.135,-1.067 -2.072,-0.106 -0.625,0.075 0.399,0.254 1.28,0.43 8.073,2.15 12.25,3.028 13.63,3.363 12.218,3.162 7.584,2.266 1.447,0.586 0.807,0.48 1.039,0.771 0.966,0.889 0.996,1.125 1.163,1.624 0.873,1.359 0.379,0.525 0.228,0.262 0.221,0.191 0.219,0.108 0.222,0.021 0.229,-0.078 0.244,-0.193 0.252,-0.307 L 0.1,10.768 0.424,10.115 0.799,9.127 1.17,7.749 1.408,6.25 1.477,4.957 1.424,3.838 1.273,2.854 1.061,2.033 0.768,1.271 0.461,0.674 0,0 z" />
        </g>
        <g
           transform="matrix(1.9159362,0,0,1.9159362,776.85352,2634.1359)"
           id="g30">
          <path
             inkscape:connector-curvature="0"
             id="path32"
             style="fill:#718ccf;fill-opacity:1;fill-rule:nonzero;stroke:none"
             d="m 0,0 -0.568,-0.643 -1.184,-0.847 -3.211,-1.826 -8.246,-3.981 -9.762,-4.277 -9.176,-3.768 -6.488,-2.455 -1.416,-0.441 -0.424,-0.051 0.213,0.242 0.75,0.508 4.836,2.818 7.389,4.114 8.238,4.578 7.377,4.207 4.567,2.833 0.851,0.649 0.463,0.471 0.592,0.736 0.523,0.811 0.483,0.943 0.515,1.309 0.371,1.074 0.174,0.42 0.115,0.211 0.123,0.16 0.137,0.106 0.153,0.044 L -2.432,7.924 -2.229,7.822 -2,7.646 -1.75,7.401 -1.402,6.982 -0.969,6.339 -0.48,5.434 -0.09,4.48 0.172,3.604 0.32,2.82 0.381,2.121 0.369,1.52 0.293,0.944 0.199,0.543 0,0 z" />
        </g>
        <g
           transform="matrix(1.9159362,0,0,1.9159362,788.04987,2630.3489)"
           id="g34">
          <path
             inkscape:connector-curvature="0"
             id="path36"
             style="fill:#718ccf;fill-opacity:1;fill-rule:nonzero;stroke:none"
             d="m 0,0 -0.357,-0.539 -0.829,-0.787 -2.701,-2.097 -6.232,-4.251 -7.299,-4.654 -6.777,-4.131 -4.666,-2.683 -0.868,-0.44 -0.292,-0.084 0.181,0.232 0.723,0.624 3.836,2.997 5.648,4.286 6.158,4.681 5.366,4.178 2.98,2.508 0.559,0.572 0.273,0.385 0.32,0.568 0.262,0.602 0.229,0.726 0.191,0.932 0.119,0.813 0.071,0.353 0.048,0.166 0.063,0.133 0.078,0.094 0.098,0.056 0.119,0.01 0.152,-0.039 0.18,-0.087 0.203,-0.136 0.285,-0.231 0.375,-0.376 0.451,-0.553 0.401,-0.605 0.3,-0.578 L -0.141,2.117 -0.002,1.629 0.07,1.215 0.098,0.801 0.076,0.408 0,0 z" />
        </g>
        <g
           transform="matrix(1.9159362,0,0,1.9159362,797.24407,2630.6558)"
           id="g38">
          <path
             inkscape:connector-curvature="0"
             id="path40"
             style="fill:#718ccf;fill-opacity:1;fill-rule:nonzero;stroke:none"
             d="m 0,0 -0.119,-0.414 -0.36,-0.665 -1.267,-1.845 -3.047,-3.913 -3.639,-4.37 -3.42,-3.943 -2.39,-2.616 -0.459,-0.443 -0.17,-0.117 0.064,0.178 0.287,0.48 1.749,2.589 2.644,3.79 2.91,4.17 2.537,3.727 1.444,2.294 0.236,0.471 0.094,0.301 0.095,0.442 0.047,0.449 0,0.505 -0.066,0.662 -0.078,0.53 -0.018,0.214 0.002,0.113 0.016,0.095 0.035,0.07 0.057,0.051 0.078,0.029 0.109,0 0.135,-0.026 0.158,-0.047 0.24,-0.103 L -1.771,2.479 -1.373,2.206 -1.006,1.893 -0.705,1.578 -0.477,1.283 -0.301,1 -0.174,0.744 -0.082,0.48 -0.033,0.279 0,0 z" />
        </g>
        <g
           transform="matrix(1.9159362,0,0,1.9159362,668.6995,2788.7953)"
           id="g42">
          <path
             inkscape:connector-curvature="0"
             id="path44"
             style="fill:#718ccf;fill-opacity:1;fill-rule:nonzero;stroke:none"
             d="m 0,0 -0.102,0.502 0.026,0.88 0.296,2.257 1.099,5.494 1.523,6.345 1.572,5.867 1.25,4.058 0.287,0.74 0.186,0.308 L 6.234,26.34 6.278,25.86 6.236,24.074 5.924,19.617 5.439,14.106 4.935,8.664 4.559,4.406 4.451,2.666 4.488,1.797 4.627,0.84 4.801,0.045 4.936,-0.594 4.965,-0.838 4.967,-0.996 4.953,-1.14 4.916,-1.269 4.855,-1.381 4.77,-1.48 4.651,-1.565 4.494,-1.635 4.297,-1.689 4.054,-1.73 3.705,-1.754 3.244,-1.738 2.703,-1.666 2.158,-1.535 1.66,-1.36 1.264,-1.174 0.912,-0.961 0.633,-0.75 0.387,-0.519 0.188,-0.285 0,0 z" />
        </g>
        <g
           transform="matrix(1.9159362,0,0,1.9159362,856.84022,2673.031)"
           id="g46">
          <path
             inkscape:connector-curvature="0"
             id="path48"
             style="fill:#718ccf;fill-opacity:1;fill-rule:nonzero;stroke:none"
             d="m 0,0 5.061,1.859 8.205,1.149 16.203,0.547 47.017,-2.259 55.024,-5.403 51.779,-6.747 37.289,-6.291 8.467,-2.023 3.193,-1.287 -0.431,-0.963 -3.565,-0.871 -11.049,-1.256 -35.162,-2.111 -45.859,-1.951 -47.307,-2.034 -39.504,-2.36 -17.429,-1.879 -5.08,-1.058 -7.03,-2.296 -7.265,-3.205 -9.426,-5.354 -7.719,-5.099 -5.555,-3.542 -1.959,-1.011 -1.523,-0.573 -1.354,-0.252 -1.185,0.108 -1.02,0.508 -0.857,0.984 -0.699,1.541 -0.533,2.037 -0.356,2.497 -0.176,3.966 0.305,5.748 1.162,7.467 1.967,7.393 2.283,6.008 2.49,4.98 2.655,4.166 2.552,3.219 2.84,2.874 L 0,0 z" />
        </g>
        <g
           transform="matrix(1.9159362,0,0,1.9159362,815.64011,2730.4192)"
           id="g50">
          <path
             inkscape:connector-curvature="0"
             id="path52"
             style="fill:#718ccf;fill-opacity:1;fill-rule:nonzero;stroke:none"
             d="m 0,0 3.059,1.709 5.152,1.572 10.346,1.996 30.416,3.333 35.873,2.126 33.925,0.934 24.583,-0.246 5.64,-0.439 2.182,-0.502 -0.18,-0.662 -2.199,-0.922 -6.965,-1.929 -22.359,-4.931 -29.244,-5.916 -30.165,-6.115 -25.121,-5.531 -11,-2.979 -3.152,-1.198 -4.279,-2.187 -4.338,-2.799 -5.508,-4.396 -4.437,-4.056 -3.206,-2.84 -1.154,-0.846 -0.92,-0.525 -0.845,-0.297 -0.77,-0.055 -0.707,0.223 -0.652,0.546 -0.606,0.92 -0.549,1.252 -0.48,1.567 -0.518,2.527 -0.388,3.721 -0.012,4.914 0.51,4.945 0.855,4.09 1.092,3.449 1.281,2.945 1.311,2.327 1.531,2.133 L 0,0 z" />
        </g>
        <g
           transform="matrix(1.9159362,0,0,1.9159362,772.76721,2768.2177)"
           id="g54">
          <path
             inkscape:connector-curvature="0"
             id="path56"
             style="fill:#718ccf;fill-opacity:1;fill-rule:nonzero;stroke:none"
             d="m 0,0 2.096,1.968 3.785,2.273 7.838,3.641 23.539,8.684 28.119,8.809 26.811,7.473 19.605,4.679 4.576,0.771 1.834,0.034 -0.012,-0.562 -1.566,-1.17 -5.16,-2.918 L 94.654,25.323 72.561,14.814 49.773,3.965 30.883,-5.42 l -8.16,-4.551 -2.272,-1.578 -2.971,-2.59 -2.896,-3.086 -3.512,-4.589 -2.724,-4.11 -1.987,-2.892 -0.752,-0.905 -0.627,-0.599 -0.613,-0.405 -0.603,-0.194 -0.606,0.034 -0.627,0.308 -0.664,0.608 -0.683,0.888 -0.696,1.151 -0.912,1.909 -1.047,2.885 -0.986,3.906 -0.572,4.037 -0.133,3.422 0.185,2.962 0.434,2.598 0.582,2.109 L -1.164,-2.1 0,0 z" />
        </g>
        <g
           transform="matrix(1.9159362,0,0,1.9159362,736.22226,2787.7065)"
           id="g58">
          <path
             inkscape:connector-curvature="0"
             id="path60"
             style="fill:#6cc630;fill-opacity:1;fill-rule:nonzero;stroke:none"
             d="m 0,0 1.104,1.715 2.218,2.217 4.774,3.853 14.724,10.028 17.86,10.896 17.185,9.754 12.703,6.592 3.02,1.316 1.258,0.338 0.09,-0.39 L 74.057,45.244 71.004,42.35 60.855,33.703 47.441,22.67 33.605,11.28 l -11.4,-9.71 -4.84,-4.537 -1.295,-1.476 -1.601,-2.295 -1.465,-2.624 -1.629,-3.765 -1.172,-3.3 -0.871,-2.334 -0.363,-0.752 -0.33,-0.52 -0.352,-0.385 -0.383,-0.237 -0.424,-0.079 -0.484,0.103 -0.562,0.305 -0.623,0.496 -0.676,0.673 -0.957,1.157 -1.217,1.808 -1.35,2.522 -1.09,2.682 -0.677,2.336 -0.381,2.072 -0.149,1.863 0.04,1.555 0.203,1.516 L 0,0 z" />
        </g>
        <g
           transform="matrix(1.9159362,0,0,1.9159362,706.32216,2796.6667)"
           id="g62">
          <path
             inkscape:connector-curvature="0"
             id="path64"
             style="fill:#6cc630;fill-opacity:1;fill-rule:nonzero;stroke:none"
             d="m 0,0 0.561,1.338 1.28,1.826 2.867,3.288 9.074,8.84 11.162,9.837 10.83,8.953 8.082,6.185 1.953,1.295 0.838,0.391 0.109,-0.263 -0.48,-0.86 -1.781,-2.405 -6.037,-7.308 -8.034,-9.384 -8.281,-9.683 -6.785,-8.208 -2.83,-3.775 -0.725,-1.194 -0.838,-1.806 -0.701,-2.018 -0.679,-2.837 -0.412,-2.456 -0.321,-1.742 -0.163,-0.572 -0.166,-0.404 -0.198,-0.312 -0.239,-0.214 -0.287,-0.109 -0.352,0.013 -0.431,0.146 -0.498,0.269 -0.557,0.387 -0.815,0.693 -1.074,1.115 -1.256,1.599 -1.093,1.745 -0.764,1.552 -0.523,1.404 -0.332,1.286 -0.167,1.094 -0.044,1.086 L 0,0 z" />
        </g>
        <g
           transform="matrix(1.9159362,0,0,1.9159362,682.0848,2795.0071)"
           id="g66">
          <path
             inkscape:connector-curvature="0"
             id="path68"
             style="fill:#718ccf;fill-opacity:1;fill-rule:nonzero;stroke:none"
             d="m 0,0 0.098,0.965 0.461,1.418 1.191,2.666 4.074,7.427 5.215,8.475 5.176,7.842 3.961,5.537 0.994,1.209 0.461,0.416 0.121,-0.146 -0.14,-0.645 -0.67,-1.888 L 18.511,27.422 15.209,19.851 11.805,12.037 9.069,5.461 8,2.492 7.77,1.588 7.586,0.27 7.531,-1.158 7.653,-3.105 7.869,-4.756 8.004,-5.936 8.014,-6.332 7.985,-6.623 7.92,-6.861 7.809,-7.045 7.646,-7.17 7.418,-7.231 7.115,-7.224 6.744,-7.148 6.312,-7.01 5.656,-6.725 4.75,-6.222 l -1.115,0.779 -1.041,0.9 -0.792,0.844 -0.61,0.796 -0.464,0.757 -0.32,0.667 -0.24,0.686 L 0,0 z" />
        </g>
      </g>
      <g
         style="fill:#6cc630;fill-opacity:1"
         transform="matrix(6.6118548,0,0,-6.6118548,818.1932,-2025.4255)"
         id="g280">
        <path
           inkscape:connector-curvature="0"
           id="path282"
           style="fill:#6cc630;fill-opacity:1;fill-rule:nonzero;stroke:none"
           d="m 0,0 0,-1.244 0.06,0.094 c 0.519,0.837 1.036,1.256 1.554,1.256 0.406,0 0.828,-0.205 1.269,-0.614 L 2.317,-1.451 c -0.375,0.354 -0.72,0.53 -1.039,0.53 -0.346,0 -0.645,-0.164 -0.898,-0.494 C 0.127,-1.745 0,-2.137 0,-2.588 l 0,-2.835 -1.079,0 0,5.423 L 0,0 z" />
      </g>
      <g
         style="fill:#6cc630;fill-opacity:1"
         transform="matrix(6.6118548,0,0,-6.6118548,846.09325,-2011.1135)"
         id="g284">
        <path
           inkscape:connector-curvature="0"
           id="path286"
           style="fill:#6cc630;fill-opacity:1;fill-rule:nonzero;stroke:none"
           d="M 0,0 2.729,0 C 2.703,0.429 2.574,0.76 2.346,0.991 2.118,1.223 1.812,1.339 1.427,1.339 1.042,1.339 0.727,1.223 0.481,0.991 0.235,0.76 0.075,0.429 0,0 m 3.791,-0.642 -3.814,0 c 0.028,-0.519 0.202,-0.931 0.522,-1.237 0.321,-0.307 0.733,-0.46 1.24,-0.46 0.707,0 1.361,0.219 1.957,0.66 l 0,-1.05 C 3.367,-2.949 3.039,-3.105 2.715,-3.2 2.39,-3.294 2.011,-3.341 1.574,-3.341 c -0.597,0 -1.081,0.124 -1.45,0.371 -0.369,0.248 -0.664,0.58 -0.886,0.999 -0.223,0.419 -0.334,0.903 -0.334,1.452 0,0.826 0.234,1.498 0.701,2.014 0.468,0.517 1.076,0.776 1.822,0.776 0.719,0 1.293,-0.252 1.721,-0.755 0.428,-0.503 0.643,-1.177 0.643,-2.022 l 0,-0.136 z" />
      </g>
      <g
         style="fill:#6cc630;fill-opacity:1"
         transform="matrix(6.6118548,0,0,-6.6118548,879.6564,-2025.4255)"
         id="g288">
        <path
           inkscape:connector-curvature="0"
           id="path290"
           style="fill:#6cc630;fill-opacity:1;fill-rule:nonzero;stroke:none"
           d="m 0,0 0,0.324 c 0,0.872 0.185,1.522 0.557,1.951 0.371,0.429 0.816,0.642 1.336,0.642 0.223,0 0.488,-0.036 0.795,-0.106 l 0,-1.048 C 2.516,1.825 2.35,1.856 2.191,1.856 1.771,1.856 1.479,1.744 1.316,1.521 1.154,1.296 1.072,0.897 1.072,0.324 l 0,-0.324 0.967,0 0,-0.966 -0.967,0 0,-4.457 -1.072,0 0,4.457 -0.779,0 0,0.966 L 0,0 z" />
      </g>
      <path
         inkscape:connector-curvature="0"
         id="path292"
         style="fill:#6cc630;fill-opacity:1;fill-rule:nonzero;stroke:none"
         d="m 898.94783,-2044.0127 7.0879,0 0,54.442 -7.0879,0 0,-54.442 z" />
      <g
         style="fill:#6cc630;fill-opacity:1"
         transform="matrix(6.6118548,0,0,-6.6118548,921.78776,-2011.1135)"
         id="g294">
        <path
           inkscape:connector-curvature="0"
           id="path296"
           style="fill:#6cc630;fill-opacity:1;fill-rule:nonzero;stroke:none"
           d="M 0,0 2.728,0 C 2.701,0.429 2.573,0.76 2.346,0.991 2.118,1.223 1.811,1.339 1.427,1.339 1.04,1.339 0.726,1.223 0.48,0.991 0.233,0.76 0.073,0.429 0,0 m 3.79,-0.642 -3.814,0 c 0.027,-0.519 0.202,-0.931 0.521,-1.237 0.32,-0.307 0.735,-0.46 1.241,-0.46 0.707,0 1.36,0.219 1.956,0.66 l 0,-1.05 C 3.365,-2.949 3.039,-3.105 2.714,-3.2 2.391,-3.294 2.009,-3.341 1.573,-3.341 c -0.597,0 -1.079,0.124 -1.45,0.371 -0.369,0.248 -0.665,0.58 -0.887,0.999 -0.222,0.419 -0.333,0.903 -0.333,1.452 0,0.826 0.234,1.498 0.701,2.014 0.468,0.517 1.076,0.776 1.823,0.776 0.718,0 1.292,-0.252 1.721,-0.755 C 3.575,1.013 3.79,0.339 3.79,-0.506 l 0,-0.136 z" />
      </g>
      <g
         style="fill:#6cc630;fill-opacity:1"
         transform="matrix(6.6118548,0,0,-6.6118548,981.41018,-1997.9479)"
         id="g298">
        <path
           inkscape:connector-curvature="0"
           id="path300"
           style="fill:#6cc630;fill-opacity:1;fill-rule:nonzero;stroke:none"
           d="m 0,0 0,-1.062 c -0.538,-0.2 -1.064,-0.3 -1.579,-0.3 -0.849,0 -1.526,0.251 -2.03,0.755 -0.506,0.502 -0.759,1.176 -0.759,2.021 0,0.853 0.246,1.541 0.738,2.063 0.49,0.523 1.137,0.785 1.939,0.785 0.279,0 0.529,-0.027 0.751,-0.08 0.222,-0.053 0.497,-0.153 0.822,-0.298 l 0,-1.143 C -0.66,3.086 -1.162,3.26 -1.626,3.26 c -0.483,0 -0.881,-0.171 -1.19,-0.51 -0.311,-0.341 -0.468,-0.773 -0.468,-1.3 0,-0.554 0.169,-0.994 0.506,-1.321 0.335,-0.325 0.788,-0.489 1.357,-0.489 0.413,0 0.887,0.119 1.421,0.36" />
      </g>
      <g
         style="fill:#6cc630;fill-opacity:1"
         transform="matrix(6.6118548,0,0,-6.6118548,984.45162,-2019.7333)"
         id="g302">
        <path
           inkscape:connector-curvature="0"
           id="path304"
           style="fill:#6cc630;fill-opacity:1;fill-rule:nonzero;stroke:none"
           d="m 0,0 2.017,1.98 0,-1.119 1.715,0 0,-0.966 -1.715,0 0,-2.655 c 0,-0.62 0.256,-0.93 0.772,-0.93 0.384,0 0.791,0.127 1.219,0.383 l 0,-1.003 c -0.412,-0.231 -0.862,-0.347 -1.35,-0.347 -0.49,0 -0.899,0.144 -1.225,0.43 C 1.331,-4.14 1.246,-4.043 1.18,-3.935 1.112,-3.827 1.057,-3.686 1.011,-3.51 0.966,-3.335 0.943,-3.002 0.943,-2.511 l 0,2.406 L 0,-0.105 0,0 z" />
      </g>
      <path
         inkscape:connector-curvature="0"
         id="path306"
         style="fill:#6cc630;fill-opacity:1;fill-rule:nonzero;stroke:none"
         d="m 1016.2223,-2025.4268 7.0879,0 0,35.8561 -7.0879,0 0,-35.8561 z m 3.5043,-15.0883 c 1.1637,0 2.1621,0.4166 3.0018,1.2232 0.8264,0.8001 1.2364,1.7852 1.2364,2.9555 0,1.1439 -0.41,2.1356 -1.2364,2.9621 -0.8397,0.8398 -1.8381,1.2497 -3.0018,1.2497 -1.091,0 -2.0564,-0.4231 -2.8895,-1.2695 -0.8331,-0.8463 -1.243,-1.8183 -1.243,-2.9423 0,-1.0909 0.4099,-2.0563 1.243,-2.9092 0.8331,-0.8331 1.7985,-1.2695 2.8895,-1.2695" />
      <g
         style="fill:#6cc630;fill-opacity:1"
         transform="matrix(6.6118548,0,0,-6.6118548,1050.3183,-2019.1039)"
         id="g308">
        <path
           inkscape:connector-curvature="0"
           id="path310"
           style="fill:#6cc630;fill-opacity:1;fill-rule:nonzero;stroke:none"
           d="m 0,0 c -0.515,0 -0.937,-0.168 -1.268,-0.506 -0.33,-0.338 -0.494,-0.768 -0.494,-1.291 0,-0.519 0.169,-0.943 0.507,-1.27 0.337,-0.329 0.772,-0.493 1.303,-0.493 0.527,0 0.957,0.166 1.293,0.498 0.336,0.333 0.504,0.758 0.504,1.276 0,0.515 -0.174,0.942 -0.525,1.28 C 0.971,-0.168 0.53,0 0,0 m 0.058,0.967 c 0.826,0 1.511,-0.265 2.058,-0.799 0.547,-0.531 0.821,-1.201 0.821,-2.006 0,-0.783 -0.278,-1.432 -0.833,-1.949 -0.553,-0.516 -1.251,-0.775 -2.093,-0.775 -0.813,0 -1.492,0.263 -2.039,0.788 -0.545,0.524 -0.82,1.179 -0.82,1.964 0,0.795 0.278,1.456 0.83,1.985 0.552,0.528 1.244,0.792 2.076,0.792" />
      </g>
      <g
         style="fill:#6cc630;fill-opacity:1"
         transform="matrix(6.6118548,0,0,-6.6118548,1084.6946,-2025.4255)"
         id="g312">
        <path
           inkscape:connector-curvature="0"
           id="path314"
           style="fill:#6cc630;fill-opacity:1;fill-rule:nonzero;stroke:none"
           d="m 0,0 0,-0.69 c 0.479,0.53 1.023,0.796 1.632,0.796 0.339,0 0.653,-0.088 0.943,-0.263 0.292,-0.175 0.512,-0.414 0.663,-0.719 0.152,-0.304 0.227,-0.787 0.227,-1.447 l 0,-3.1 -1.072,0 0,3.088 c 0,0.555 -0.084,0.951 -0.253,1.188 C 1.971,-0.91 1.688,-0.79 1.291,-0.79 0.784,-0.79 0.354,-1.044 0,-1.55 l 0,-3.873 -1.097,0 0,5.423 L 0,0 z" />
      </g>
      <g
         style="fill:#6cc630;fill-opacity:1"
         transform="matrix(6.6118548,0,0,-6.6118548,1115.7591,-1992.1401)"
         id="g316">
        <path
           inkscape:connector-curvature="0"
           id="path318"
           style="fill:#6cc630;fill-opacity:1;fill-rule:nonzero;stroke:none"
           d="M 0,0 0,1.155 C 0.302,0.943 0.612,0.771 0.929,0.64 1.245,0.508 1.511,0.441 1.727,0.441 1.95,0.441 2.144,0.497 2.304,0.606 2.465,0.717 2.546,0.848 2.546,1.001 2.546,1.159 2.493,1.29 2.39,1.394 2.286,1.498 2.061,1.648 1.715,1.845 1.023,2.23 0.57,2.558 0.355,2.832 0.142,3.106 0.034,3.403 0.034,3.725 c 0,0.417 0.163,0.757 0.487,1.02 0.324,0.264 0.743,0.395 1.253,0.395 0.53,0 1.075,-0.15 1.632,-0.448 l 0,-1.061 C 2.77,4.015 2.249,4.208 1.845,4.208 1.636,4.208 1.469,4.165 1.342,4.076 1.214,3.987 1.148,3.87 1.148,3.724 1.148,3.599 1.207,3.479 1.322,3.365 1.438,3.25 1.642,3.113 1.933,2.952 L 2.315,2.734 C 3.22,2.223 3.671,1.657 3.671,1.037 3.671,0.593 3.499,0.228 3.15,-0.057 2.801,-0.341 2.355,-0.484 1.81,-0.484 1.487,-0.484 1.199,-0.449 0.949,-0.38 0.697,-0.312 0.381,-0.185 0,0" />
      </g>
      <g
         transform="matrix(6.6118548,0,0,-6.6118548,1159.1297,-2080.5604)"
         id="g320">
        <path
           inkscape:connector-curvature="0"
           id="path322"
           style="fill:#231f20;fill-opacity:1;fill-rule:nonzero;stroke:#2b428e;stroke-width:0.75;stroke-linecap:butt;stroke-linejoin:miter;stroke-miterlimit:4;stroke-opacity:1;stroke-dasharray:none"
           d="M 0,0 0,-29.116" />
      </g>
      <g
         style="fill:#3d579a;fill-opacity:1"
         transform="matrix(6.6118548,0,0,-6.6118548,1189.3477,-1975.6653)"
         id="g324">
        <path
           inkscape:connector-curvature="0"
           id="path326"
           style="fill:#3d579a;fill-opacity:1;fill-rule:nonzero;stroke:none"
           d="m 0,0 -0.76,0 0,-3.336 c 0.33,-0.17 0.675,-0.253 1.035,-0.253 0.503,0 0.913,0.173 1.233,0.523 0.32,0.351 0.479,0.801 0.479,1.351 0,0.353 -0.075,0.666 -0.226,0.937 C 1.609,-0.507 1.404,-0.31 1.144,-0.186 0.882,-0.062 0.502,0 0,0 m -1.855,-7.186 0,8.188 1.877,0 c 0.962,0 1.71,-0.239 2.247,-0.718 0.536,-0.48 0.803,-1.151 0.803,-2.012 0,-0.813 -0.252,-1.48 -0.757,-2.004 -0.503,-0.522 -1.146,-0.783 -1.927,-0.783 -0.345,0 -0.728,0.076 -1.148,0.229 l 0,-2.9 -1.095,0 z" />
      </g>
      <g
         style="fill:#3d579a;fill-opacity:1"
         transform="matrix(6.6118548,0,0,-6.6118548,1225.0545,-1982.293)"
         id="g328">
        <path
           inkscape:connector-curvature="0"
           id="path330"
           style="fill:#3d579a;fill-opacity:1;fill-rule:nonzero;stroke:none"
           d="m 0,0 0,-1.244 0.059,0.095 c 0.518,0.836 1.037,1.255 1.555,1.255 0.407,0 0.828,-0.205 1.268,-0.613 L 2.317,-1.45 C 1.943,-1.096 1.598,-0.92 1.279,-0.92 0.934,-0.92 0.634,-1.084 0.38,-1.415 0.127,-1.746 0,-2.137 0,-2.587 l 0,-2.837 -1.078,0 0,5.424 L 0,0 z" />
      </g>
      <g
         style="fill:#3d579a;fill-opacity:1"
         transform="matrix(6.6118548,0,0,-6.6118548,1263.8475,-1975.9814)"
         id="g332">
        <path
           inkscape:connector-curvature="0"
           id="path334"
           style="fill:#3d579a;fill-opacity:1;fill-rule:nonzero;stroke:none"
           d="m 0,0 c -0.518,0 -0.939,-0.169 -1.27,-0.508 -0.329,-0.338 -0.495,-0.768 -0.495,-1.29 0,-0.519 0.17,-0.942 0.508,-1.271 0.337,-0.328 0.772,-0.492 1.302,-0.492 0.527,0 0.959,0.165 1.294,0.498 0.337,0.332 0.505,0.757 0.505,1.276 0,0.515 -0.175,0.941 -0.525,1.279 C 0.969,-0.169 0.529,0 0,0 M 0.058,0.966 C 0.883,0.966 1.568,0.7 2.114,0.167 2.66,-0.365 2.935,-1.035 2.935,-1.84 2.935,-2.622 2.657,-3.272 2.104,-3.788 1.548,-4.306 0.853,-4.563 0.01,-4.563 c -0.814,0 -1.493,0.263 -2.039,0.787 -0.546,0.525 -0.819,1.179 -0.819,1.965 0,0.795 0.276,1.456 0.827,1.984 0.553,0.529 1.246,0.793 2.079,0.793" />
      </g>
      <g
         style="fill:#3d579a;fill-opacity:1"
         transform="matrix(6.6118548,0,0,-6.6118548,1294.3948,-1997.3701)"
         id="g336">
        <path
           inkscape:connector-curvature="0"
           id="path338"
           style="fill:#3d579a;fill-opacity:1;fill-rule:nonzero;stroke:none"
           d="m 0,0 c 0.177,0 0.328,-0.062 0.454,-0.185 0.125,-0.123 0.189,-0.272 0.189,-0.445 0,-0.182 -0.06,-0.331 -0.181,-0.453 -0.119,-0.123 -0.27,-0.184 -0.45,-0.184 -0.168,0 -0.319,0.063 -0.449,0.189 -0.129,0.125 -0.194,0.275 -0.194,0.448 0,0.165 0.064,0.31 0.193,0.439 C -0.312,-0.063 -0.164,0 0,0 m -0.507,-2.28 1.073,0 0,-6.196 c 0,-0.938 -0.361,-1.603 -1.081,-1.992 l -0.799,0.785 c 0.247,0.085 0.445,0.237 0.588,0.453 0.147,0.216 0.219,0.467 0.219,0.754 l 0,6.196 z" />
      </g>
      <g
         style="fill:#3d579a;fill-opacity:1"
         transform="matrix(6.6118548,0,0,-6.6118548,1314.1147,-1967.9883)"
         id="g340">
        <path
           inkscape:connector-curvature="0"
           id="path342"
           style="fill:#3d579a;fill-opacity:1;fill-rule:nonzero;stroke:none"
           d="M 0,0 2.729,0 C 2.702,0.429 2.574,0.758 2.347,0.99 2.118,1.222 1.812,1.338 1.427,1.338 1.042,1.338 0.726,1.222 0.481,0.99 0.236,0.758 0.076,0.429 0,0 m 3.79,-0.642 -3.813,0 c 0.028,-0.519 0.201,-0.932 0.521,-1.238 0.32,-0.307 0.733,-0.46 1.241,-0.46 0.707,0 1.36,0.22 1.957,0.66 l 0,-1.049 C 3.367,-2.949 3.039,-3.107 2.715,-3.2 2.392,-3.295 2.011,-3.343 1.574,-3.343 c -0.597,0 -1.081,0.124 -1.45,0.372 -0.369,0.247 -0.665,0.581 -0.887,0.999 -0.221,0.418 -0.334,0.903 -0.334,1.453 0,0.826 0.235,1.497 0.702,2.014 C 0.072,2.011 0.68,2.27 1.427,2.27 2.146,2.27 2.719,2.018 3.147,1.515 3.577,1.012 3.79,0.338 3.79,-0.507 l 0,-0.135 z" />
      </g>
      <g
         style="fill:#3d579a;fill-opacity:1"
         transform="matrix(6.6118548,0,0,-6.6118548,1373.7437,-1954.8195)"
         id="g344">
        <path
           inkscape:connector-curvature="0"
           id="path346"
           style="fill:#3d579a;fill-opacity:1;fill-rule:nonzero;stroke:none"
           d="m 0,0 0,-1.062 c -0.538,-0.201 -1.063,-0.3 -1.58,-0.3 -0.848,0 -1.524,0.251 -2.03,0.755 -0.506,0.503 -0.758,1.176 -0.758,2.021 0,0.853 0.246,1.541 0.738,2.064 0.49,0.522 1.138,0.783 1.939,0.783 0.279,0 0.53,-0.027 0.751,-0.08 0.222,-0.053 0.497,-0.152 0.822,-0.297 l 0,-1.144 c -0.541,0.346 -1.045,0.519 -1.508,0.519 -0.483,0 -0.881,-0.17 -1.191,-0.51 -0.312,-0.339 -0.466,-0.773 -0.466,-1.3 0,-0.554 0.169,-0.993 0.505,-1.32 0.336,-0.326 0.789,-0.489 1.358,-0.489 0.413,0 0.886,0.12 1.42,0.36" />
      </g>
      <g
         style="fill:#3d579a;fill-opacity:1"
         transform="matrix(6.6118548,0,0,-6.6118548,1376.7919,-1976.6016)"
         id="g348">
        <path
           inkscape:connector-curvature="0"
           id="path350"
           style="fill:#3d579a;fill-opacity:1;fill-rule:nonzero;stroke:none"
           d="m 0,0 2.016,1.98 0,-1.119 1.714,0 0,-0.968 -1.714,0 0,-2.653 c 0,-0.62 0.257,-0.93 0.772,-0.93 0.385,0 0.791,0.127 1.22,0.383 l 0,-1.002 c -0.411,-0.232 -0.863,-0.348 -1.35,-0.348 -0.492,0 -0.9,0.143 -1.226,0.431 -0.101,0.086 -0.188,0.184 -0.253,0.291 -0.068,0.108 -0.123,0.25 -0.168,0.424 -0.046,0.175 -0.068,0.508 -0.068,1 l 0,2.404 L 0,-0.107 0,0 z" />
      </g>
      <path
         inkscape:connector-curvature="0"
         id="path352"
         style="fill:#3d579a;fill-opacity:1;fill-rule:nonzero;stroke:none"
         d="m 1408.55,-1982.2911 7.0945,0 0,35.8627 -7.0945,0 0,-35.8627 z m 3.5174,-15.0816 c 1.1638,0 2.1621,0.3967 2.9952,1.2033 0.8331,0.8067 1.2431,1.7985 1.2431,2.9688 0,1.1438 -0.41,2.129 -1.2431,2.9555 -0.8331,0.8331 -1.8314,1.2496 -2.9952,1.2496 -1.0909,0 -2.0629,-0.4165 -2.8828,-1.2695 -0.8329,-0.8397 -1.2495,-1.8248 -1.2495,-2.9356 0,-1.091 0.4166,-2.0563 1.2495,-2.9026 0.8199,-0.8529 1.7919,-1.2695 2.8828,-1.2695" />
      <g
         style="fill:#3d579a;fill-opacity:1"
         transform="matrix(6.6118548,0,0,-6.6118548,1442.6644,-1975.9814)"
         id="g354">
        <path
           inkscape:connector-curvature="0"
           id="path356"
           style="fill:#3d579a;fill-opacity:1;fill-rule:nonzero;stroke:none"
           d="m 0,0 c -0.517,0 -0.938,-0.169 -1.268,-0.508 -0.332,-0.338 -0.496,-0.768 -0.496,-1.29 0,-0.519 0.17,-0.942 0.507,-1.271 0.339,-0.328 0.773,-0.492 1.303,-0.492 0.526,0 0.958,0.165 1.294,0.498 0.337,0.332 0.504,0.757 0.504,1.276 0,0.515 -0.175,0.941 -0.526,1.279 C 0.969,-0.169 0.529,0 0,0 m 0.058,0.966 c 0.826,0 1.51,-0.266 2.057,-0.799 0.546,-0.532 0.82,-1.202 0.82,-2.007 0,-0.782 -0.278,-1.432 -0.832,-1.948 -0.553,-0.518 -1.25,-0.775 -2.092,-0.775 -0.814,0 -1.493,0.263 -2.04,0.787 -0.546,0.525 -0.819,1.179 -0.819,1.965 0,0.795 0.277,1.456 0.828,1.984 0.552,0.529 1.245,0.793 2.078,0.793" />
      </g>
      <g
         style="fill:#3d579a;fill-opacity:1"
         transform="matrix(6.6118548,0,0,-6.6118548,1477.0283,-1982.293)"
         id="g358">
        <path
           inkscape:connector-curvature="0"
           id="path360"
           style="fill:#3d579a;fill-opacity:1;fill-rule:nonzero;stroke:none"
           d="m 0,0 0,-0.69 c 0.48,0.531 1.024,0.796 1.634,0.796 0.338,0 0.652,-0.088 0.942,-0.262 0.292,-0.176 0.513,-0.415 0.664,-0.719 0.151,-0.305 0.227,-0.787 0.227,-1.447 l 0,-3.102 -1.072,0 0,3.09 c 0,0.553 -0.086,0.949 -0.253,1.188 -0.17,0.237 -0.454,0.355 -0.851,0.355 C 0.785,-0.791 0.354,-1.043 0,-1.55 l 0,-3.874 -1.096,0 0,5.424 L 0,0 z" />
      </g>
      <g
         style="fill:#3d579a;fill-opacity:1"
         transform="matrix(6.6118548,0,0,-6.6118548,1508.0987,-1949.0076)"
         id="g362">
        <path
           inkscape:connector-curvature="0"
           id="path364"
           style="fill:#3d579a;fill-opacity:1;fill-rule:nonzero;stroke:none"
           d="M 0,0 0,1.156 C 0.303,0.943 0.612,0.771 0.929,0.64 1.245,0.508 1.511,0.442 1.728,0.442 c 0.223,0 0.416,0.055 0.576,0.165 0.161,0.11 0.242,0.242 0.242,0.395 0,0.157 -0.052,0.288 -0.155,0.392 C 2.286,1.498 2.061,1.649 1.716,1.846 1.023,2.229 0.57,2.559 0.356,2.833 0.142,3.105 0.035,3.403 0.035,3.725 c 0,0.417 0.162,0.757 0.486,1.021 0.324,0.262 0.744,0.394 1.253,0.394 0.53,0 1.074,-0.149 1.633,-0.449 l 0,-1.06 C 2.77,4.016 2.25,4.209 1.845,4.209 1.636,4.209 1.469,4.165 1.342,4.076 1.213,3.987 1.149,3.871 1.149,3.725 1.149,3.599 1.207,3.478 1.323,3.364 1.438,3.25 1.643,3.113 1.933,2.952 L 2.316,2.734 C 3.22,2.224 3.673,1.658 3.673,1.037 3.673,0.592 3.498,0.229 3.15,-0.056 2.803,-0.341 2.355,-0.483 1.811,-0.483 1.487,-0.483 1.199,-0.448 0.949,-0.381 0.697,-0.312 0.381,-0.184 0,0" />
      </g>
      <g
         style="fill:#7189c4;fill-opacity:1"
         transform="matrix(6.6118548,0,0,-6.6118548,1602.0081,-1946.0832)"
         id="g366">
        <path
           inkscape:connector-curvature="0"
           id="path368"
           style="fill:#7189c4;fill-opacity:1;fill-rule:nonzero;stroke:none"
           d="m 0,0 -6.206,0 0,0.159 c 0.239,0.233 0.503,0.51 0.79,0.832 0.286,0.322 0.656,0.749 1.107,1.279 0.209,0.239 0.405,0.475 0.587,0.707 0.183,0.232 0.34,0.457 0.469,0.675 0.13,0.219 0.239,0.459 0.33,0.722 0.091,0.264 0.136,0.534 0.136,0.808 0,0.377 -0.109,0.682 -0.327,0.917 -0.218,0.234 -0.497,0.35 -0.834,0.35 -0.669,0 -1.332,-0.345 -1.993,-1.037 l 0,1.927 c 0.232,0.15 0.421,0.269 0.572,0.36 0.148,0.091 0.321,0.178 0.515,0.265 0.196,0.087 0.426,0.161 0.693,0.224 0.267,0.063 0.557,0.095 0.866,0.095 0.5,0 0.953,-0.102 1.361,-0.304 0.41,-0.203 0.732,-0.495 0.965,-0.878 0.235,-0.384 0.351,-0.83 0.351,-1.341 0,-0.363 -0.053,-0.699 -0.159,-1.014 C -0.884,4.431 -0.993,4.178 -1.107,3.985 -1.222,3.792 -1.372,3.555 -1.562,3.271 -1.898,2.769 -2.261,2.29 -2.646,1.833 L 0,1.833 0,0 z" />
      </g>
      <g
         style="fill:#7189c4;fill-opacity:1"
         transform="matrix(6.6118548,0,0,-6.6118548,1634.5188,-1973.4067)"
         id="g370">
        <path
           inkscape:connector-curvature="0"
           id="path372"
           style="fill:#7189c4;fill-opacity:1;fill-rule:nonzero;stroke:none"
           d="M 0,0 C 0,0.723 -0.049,1.317 -0.147,1.78 -0.245,2.244 -0.483,2.476 -0.86,2.476 -1.116,2.476 -1.308,2.347 -1.435,2.087 -1.563,1.828 -1.641,1.528 -1.671,1.19 -1.7,0.853 -1.716,0.456 -1.716,0 c 0,-0.774 0.049,-1.376 0.146,-1.807 0.095,-0.43 0.333,-0.645 0.71,-0.645 0.381,0 0.619,0.215 0.715,0.645 C -0.048,-1.376 0,-0.774 0,0 M 2.329,0 C 2.329,-0.707 2.245,-1.329 2.075,-1.864 1.905,-2.397 1.674,-2.835 1.376,-3.174 1.08,-3.513 0.74,-3.768 0.36,-3.935 c -0.381,-0.167 -0.789,-0.25 -1.22,-0.25 -0.429,0 -0.833,0.083 -1.215,0.25 -0.381,0.167 -0.718,0.422 -1.014,0.764 -0.294,0.342 -0.527,0.778 -0.698,1.307 -0.171,0.532 -0.257,1.152 -0.257,1.864 0,0.715 0.086,1.339 0.257,1.869 0.171,0.53 0.403,0.968 0.695,1.315 0.293,0.345 0.631,0.601 1.014,0.768 0.383,0.168 0.789,0.251 1.218,0.251 0.431,0 0.839,-0.083 1.216,-0.248 C 0.735,3.79 1.075,3.535 1.373,3.186 1.673,2.838 1.905,2.397 2.075,1.862 2.245,1.329 2.329,0.708 2.329,0" />
      </g>
      <path
         inkscape:connector-curvature="0"
         id="path374"
         style="fill:#3d579a;fill-opacity:1;fill-rule:nonzero;stroke:none"
         d="m 1683.6295,-1946.4568 -14.7708,0 0,-54.0188 14.7708,0 0,54.0188 z" />
      <path
         inkscape:connector-curvature="0"
         id="path376"
         style="fill:#3d579a;fill-opacity:1;fill-rule:nonzero;stroke:none"
         d="m 1715.4392,-1946.4601 -14.7776,0 0,-54.0123 14.7776,0 0,54.0123 z" />
    </g>
  </g>
</svg>
