<?xml version="1.0" encoding="UTF-8" standalone="no"?>
<!-- Created with Inkscape (http://www.inkscape.org/) -->

<svg
   xmlns:dc="http://purl.org/dc/elements/1.1/"
   xmlns:cc="http://creativecommons.org/ns#"
   xmlns:rdf="http://www.w3.org/1999/02/22-rdf-syntax-ns#"
   xmlns:svg="http://www.w3.org/2000/svg"
   xmlns="http://www.w3.org/2000/svg"
   xmlns:sodipodi="http://sodipodi.sourceforge.net/DTD/sodipodi-0.dtd"
   xmlns:inkscape="http://www.inkscape.org/namespaces/inkscape"
   width="466.45648"
   height="271.72522"
   id="svg3458"
   version="1.1"
   inkscape:version="0.48.1 r9760"
   sodipodi:docname="reflections-projections-2011.svg">
  <defs
     id="defs3460" />
  <sodipodi:namedview
     id="base"
     pagecolor="#ffffff"
     bordercolor="#666666"
     borderopacity="1.0"
     inkscape:pageopacity="0.0"
     inkscape:pageshadow="2"
     inkscape:zoom="0.98994949"
     inkscape:cx="367.77158"
     inkscape:cy="12.218762"
     inkscape:document-units="px"
     inkscape:current-layer="layer1"
     showgrid="false"
     fit-margin-top="0"
     fit-margin-left="0"
     fit-margin-right="0"
     fit-margin-bottom="0"
     inkscape:window-width="1440"
     inkscape:window-height="840"
     inkscape:window-x="0"
     inkscape:window-y="32"
     inkscape:window-maximized="1" />
  <metadata
     id="metadata3463">
    <rdf:RDF>
      <cc:Work
         rdf:about="">
        <dc:format>image/svg+xml</dc:format>
        <dc:type
           rdf:resource="http://purl.org/dc/dcmitype/StillImage" />
        <dc:title></dc:title>
      </cc:Work>
    </rdf:RDF>
  </metadata>
  <g
     inkscape:label="Layer 1"
     inkscape:groupmode="layer"
     id="layer1"
     transform="translate(283.96024,-461.78373)">
    <g
       id="g5213"
       transform="matrix(0.50590967,0,0,-0.50590967,-506.82528,1917.386)">
      <g
         id="g14"
         transform="matrix(1.9159362,0,0,1.9159362,802.39315,2632.8318)">
        <path
           d="m 0,0 -0.004,-0.241 -0.113,-0.471 -0.733,-2.156 -1.322,-3.406 -1.517,-3.688 -1.37,-3.182 -0.871,-1.877 -0.121,-0.199 -0.019,0.053 0.06,0.281 0.567,1.944 0.949,3.037 1.09,3.42 0.976,3.097 0.615,2.055 0.086,0.354 0.02,0.158 0.01,0.269 -0.018,0.247 -0.051,0.298 -0.06,0.256 -0.024,0.127 -0.005,0.061 10e-4,0.052 0.01,0.047 0.02,0.045 0.031,0.035 0.043,0.033 0.059,0.026 0.072,0.017 0.09,0.016 L -1.4,0.716 -1.229,0.708 -1.025,0.681 -0.824,0.632 -0.641,0.565 -0.49,0.496 -0.363,0.418 -0.26,0.339 -0.168,0.249 -0.086,0.151 0,0 z"
           style="fill:#718ccf;fill-opacity:1;fill-rule:nonzero;stroke:none"
           id="path16"
           inkscape:connector-curvature="0" />
      </g>
      <g
         id="g18"
         transform="matrix(1.9159362,0,0,1.9159362,732.71974,2679.1342)">
        <path
           d="m 0,0 -2.158,-0.651 -3.651,-0.297 -9.024,0.196 -22.204,2.037 -25.594,3.38 -23.692,3.749 -16.49,3.162 -3.27,0.844 -1.166,0.521 0.528,0.323 2,0.222 13.132,0.202 20.292,-0.254 22.902,-0.386 20.965,-0.202 14.474,0.318 2.598,0.274 1.682,0.375 2.889,0.916 3.029,1.33 3.41,1.92 2.723,1.726 1.453,0.852 0.635,0.297 0.555,0.181 0.488,0.058 L 6.934,21.014 7.295,20.782 7.6,20.364 7.84,19.743 8.014,18.945 8.121,17.905 8.123,16.236 7.906,14.005 7.361,11.297 6.576,8.781 5.617,6.543 4.619,4.755 3.559,3.243 2.521,2.051 1.371,0.984 0,0 z"
           style="fill:#718ccf;fill-opacity:1;fill-rule:nonzero;stroke:none"
           id="path20"
           inkscape:connector-curvature="0" />
      </g>
      <g
         id="g22"
         transform="matrix(1.9159362,0,0,1.9159362,747.55694,2656.8653)">
        <path
           d="m 0,0 -1.393,-0.596 -2.498,-0.484 -6.666,-0.589 -15.967,-0.364 -18.461,0.244 -17.084,0.629 -11.828,0.781 -2.277,0.285 -0.804,0.239 0.419,0.238 1.476,0.285 9.541,1.076 14.631,1.315 16.405,1.427 14.862,1.428 9.83,1.272 1.759,0.384 1.065,0.387 1.582,0.737 1.672,1.008 1.785,1.343 1.685,1.489 1.241,1.089 0.406,0.293 0.334,0.185 0.305,0.097 0.281,0 L 2.557,14.094 2.795,13.861 3.016,13.494 3.211,13.002 3.391,12.35 3.564,11.343 3.668,9.912 3.617,8.129 3.393,6.441 3.023,4.904 2.584,3.662 2.078,2.592 1.535,1.701 0.912,0.895 0,0 z"
           style="fill:#718ccf;fill-opacity:1;fill-rule:nonzero;stroke:none"
           id="path24"
           inkscape:connector-curvature="0" />
      </g>
      <g
         id="g26"
         transform="matrix(1.9159362,0,0,1.9159362,763.28103,2641.9943)">
        <path
           d="m 0,0 -1.033,-0.678 -1.992,-0.744 -5.467,-1.415 -13.38,-2.559 -15.627,-2.42 -14.546,-1.93 -10.135,-1.067 -2.072,-0.106 -0.625,0.075 0.399,0.254 1.28,0.43 8.073,2.15 12.25,3.028 13.63,3.363 12.218,3.162 7.584,2.266 1.447,0.586 0.807,0.48 1.039,0.771 0.966,0.889 0.996,1.125 1.163,1.624 0.873,1.359 0.379,0.525 0.228,0.262 0.221,0.191 0.219,0.108 0.222,0.021 0.229,-0.078 0.244,-0.193 0.252,-0.307 L 0.1,10.768 0.424,10.115 0.799,9.127 1.17,7.749 1.408,6.25 1.477,4.957 1.424,3.838 1.273,2.854 1.061,2.033 0.768,1.271 0.461,0.674 0,0 z"
           style="fill:#718ccf;fill-opacity:1;fill-rule:nonzero;stroke:none"
           id="path28"
           inkscape:connector-curvature="0" />
      </g>
      <g
         id="g30"
         transform="matrix(1.9159362,0,0,1.9159362,776.85352,2634.1359)">
        <path
           d="m 0,0 -0.568,-0.643 -1.184,-0.847 -3.211,-1.826 -8.246,-3.981 -9.762,-4.277 -9.176,-3.768 -6.488,-2.455 -1.416,-0.441 -0.424,-0.051 0.213,0.242 0.75,0.508 4.836,2.818 7.389,4.114 8.238,4.578 7.377,4.207 4.567,2.833 0.851,0.649 0.463,0.471 0.592,0.736 0.523,0.811 0.483,0.943 0.515,1.309 0.371,1.074 0.174,0.42 0.115,0.211 0.123,0.16 0.137,0.106 0.153,0.044 L -2.432,7.924 -2.229,7.822 -2,7.646 -1.75,7.401 -1.402,6.982 -0.969,6.339 -0.48,5.434 -0.09,4.48 0.172,3.604 0.32,2.82 0.381,2.121 0.369,1.52 0.293,0.944 0.199,0.543 0,0 z"
           style="fill:#718ccf;fill-opacity:1;fill-rule:nonzero;stroke:none"
           id="path32"
           inkscape:connector-curvature="0" />
      </g>
      <g
         id="g34"
         transform="matrix(1.9159362,0,0,1.9159362,788.04987,2630.3489)">
        <path
           d="m 0,0 -0.357,-0.539 -0.829,-0.787 -2.701,-2.097 -6.232,-4.251 -7.299,-4.654 -6.777,-4.131 -4.666,-2.683 -0.868,-0.44 -0.292,-0.084 0.181,0.232 0.723,0.624 3.836,2.997 5.648,4.286 6.158,4.681 5.366,4.178 2.98,2.508 0.559,0.572 0.273,0.385 0.32,0.568 0.262,0.602 0.229,0.726 0.191,0.932 0.119,0.813 0.071,0.353 0.048,0.166 0.063,0.133 0.078,0.094 0.098,0.056 0.119,0.01 0.152,-0.039 0.18,-0.087 0.203,-0.136 0.285,-0.231 0.375,-0.376 0.451,-0.553 0.401,-0.605 0.3,-0.578 L -0.141,2.117 -0.002,1.629 0.07,1.215 0.098,0.801 0.076,0.408 0,0 z"
           style="fill:#718ccf;fill-opacity:1;fill-rule:nonzero;stroke:none"
           id="path36"
           inkscape:connector-curvature="0" />
      </g>
      <g
         id="g38"
         transform="matrix(1.9159362,0,0,1.9159362,797.24407,2630.6558)">
        <path
           d="m 0,0 -0.119,-0.414 -0.36,-0.665 -1.267,-1.845 -3.047,-3.913 -3.639,-4.37 -3.42,-3.943 -2.39,-2.616 -0.459,-0.443 -0.17,-0.117 0.064,0.178 0.287,0.48 1.749,2.589 2.644,3.79 2.91,4.17 2.537,3.727 1.444,2.294 0.236,0.471 0.094,0.301 0.095,0.442 0.047,0.449 0,0.505 -0.066,0.662 -0.078,0.53 -0.018,0.214 0.002,0.113 0.016,0.095 0.035,0.07 0.057,0.051 0.078,0.029 0.109,0 0.135,-0.026 0.158,-0.047 0.24,-0.103 L -1.771,2.479 -1.373,2.206 -1.006,1.893 -0.705,1.578 -0.477,1.283 -0.301,1 -0.174,0.744 -0.082,0.48 -0.033,0.279 0,0 z"
           style="fill:#718ccf;fill-opacity:1;fill-rule:nonzero;stroke:none"
           id="path40"
           inkscape:connector-curvature="0" />
      </g>
      <g
         id="g42"
         transform="matrix(1.9159362,0,0,1.9159362,668.6995,2788.7953)">
        <path
           d="m 0,0 -0.102,0.502 0.026,0.88 0.296,2.257 1.099,5.494 1.523,6.345 1.572,5.867 1.25,4.058 0.287,0.74 0.186,0.308 L 6.234,26.34 6.278,25.86 6.236,24.074 5.924,19.617 5.439,14.106 4.935,8.664 4.559,4.406 4.451,2.666 4.488,1.797 4.627,0.84 4.801,0.045 4.936,-0.594 4.965,-0.838 4.967,-0.996 4.953,-1.14 4.916,-1.269 4.855,-1.381 4.77,-1.48 4.651,-1.565 4.494,-1.635 4.297,-1.689 4.054,-1.73 3.705,-1.754 3.244,-1.738 2.703,-1.666 2.158,-1.535 1.66,-1.36 1.264,-1.174 0.912,-0.961 0.633,-0.75 0.387,-0.519 0.188,-0.285 0,0 z"
           style="fill:#718ccf;fill-opacity:1;fill-rule:nonzero;stroke:none"
           id="path44"
           inkscape:connector-curvature="0" />
      </g>
      <g
         id="g46"
         transform="matrix(1.9159362,0,0,1.9159362,856.84022,2673.031)">
        <path
           d="m 0,0 5.061,1.859 8.205,1.149 16.203,0.547 47.017,-2.259 55.024,-5.403 51.779,-6.747 37.289,-6.291 8.467,-2.023 3.193,-1.287 -0.431,-0.963 -3.565,-0.871 -11.049,-1.256 -35.162,-2.111 -45.859,-1.951 -47.307,-2.034 -39.504,-2.36 -17.429,-1.879 -5.08,-1.058 -7.03,-2.296 -7.265,-3.205 -9.426,-5.354 -7.719,-5.099 -5.555,-3.542 -1.959,-1.011 -1.523,-0.573 -1.354,-0.252 -1.185,0.108 -1.02,0.508 -0.857,0.984 -0.699,1.541 -0.533,2.037 -0.356,2.497 -0.176,3.966 0.305,5.748 1.162,7.467 1.967,7.393 2.283,6.008 2.49,4.98 2.655,4.166 2.552,3.219 2.84,2.874 L 0,0 z"
           style="fill:#718ccf;fill-opacity:1;fill-rule:nonzero;stroke:none"
           id="path48"
           inkscape:connector-curvature="0" />
      </g>
      <g
         id="g50"
         transform="matrix(1.9159362,0,0,1.9159362,815.64011,2730.4192)">
        <path
           d="m 0,0 3.059,1.709 5.152,1.572 10.346,1.996 30.416,3.333 35.873,2.126 33.925,0.934 24.583,-0.246 5.64,-0.439 2.182,-0.502 -0.18,-0.662 -2.199,-0.922 -6.965,-1.929 -22.359,-4.931 -29.244,-5.916 -30.165,-6.115 -25.121,-5.531 -11,-2.979 -3.152,-1.198 -4.279,-2.187 -4.338,-2.799 -5.508,-4.396 -4.437,-4.056 -3.206,-2.84 -1.154,-0.846 -0.92,-0.525 -0.845,-0.297 -0.77,-0.055 -0.707,0.223 -0.652,0.546 -0.606,0.92 -0.549,1.252 -0.48,1.567 -0.518,2.527 -0.388,3.721 -0.012,4.914 0.51,4.945 0.855,4.09 1.092,3.449 1.281,2.945 1.311,2.327 1.531,2.133 L 0,0 z"
           style="fill:#718ccf;fill-opacity:1;fill-rule:nonzero;stroke:none"
           id="path52"
           inkscape:connector-curvature="0" />
      </g>
      <g
         id="g54"
         transform="matrix(1.9159362,0,0,1.9159362,772.76721,2768.2177)">
        <path
           d="m 0,0 2.096,1.968 3.785,2.273 7.838,3.641 23.539,8.684 28.119,8.809 26.811,7.473 19.605,4.679 4.576,0.771 1.834,0.034 -0.012,-0.562 -1.566,-1.17 -5.16,-2.918 L 94.654,25.323 72.561,14.814 49.773,3.965 30.883,-5.42 l -8.16,-4.551 -2.272,-1.578 -2.971,-2.59 -2.896,-3.086 -3.512,-4.589 -2.724,-4.11 -1.987,-2.892 -0.752,-0.905 -0.627,-0.599 -0.613,-0.405 -0.603,-0.194 -0.606,0.034 -0.627,0.308 -0.664,0.608 -0.683,0.888 -0.696,1.151 -0.912,1.909 -1.047,2.885 -0.986,3.906 -0.572,4.037 -0.133,3.422 0.185,2.962 0.434,2.598 0.582,2.109 L -1.164,-2.1 0,0 z"
           style="fill:#718ccf;fill-opacity:1;fill-rule:nonzero;stroke:none"
           id="path56"
           inkscape:connector-curvature="0" />
      </g>
      <g
         id="g58"
         transform="matrix(1.9159362,0,0,1.9159362,736.22226,2787.7065)">
        <path
           d="m 0,0 1.104,1.715 2.218,2.217 4.774,3.853 14.724,10.028 17.86,10.896 17.185,9.754 12.703,6.592 3.02,1.316 1.258,0.338 0.09,-0.39 L 74.057,45.244 71.004,42.35 60.855,33.703 47.441,22.67 33.605,11.28 l -11.4,-9.71 -4.84,-4.537 -1.295,-1.476 -1.601,-2.295 -1.465,-2.624 -1.629,-3.765 -1.172,-3.3 -0.871,-2.334 -0.363,-0.752 -0.33,-0.52 -0.352,-0.385 -0.383,-0.237 -0.424,-0.079 -0.484,0.103 -0.562,0.305 -0.623,0.496 -0.676,0.673 -0.957,1.157 -1.217,1.808 -1.35,2.522 -1.09,2.682 -0.677,2.336 -0.381,2.072 -0.149,1.863 0.04,1.555 0.203,1.516 L 0,0 z"
           style="fill:#6cc630;fill-opacity:1;fill-rule:nonzero;stroke:none"
           id="path60"
           inkscape:connector-curvature="0" />
      </g>
      <g
         id="g62"
         transform="matrix(1.9159362,0,0,1.9159362,706.32216,2796.6667)">
        <path
           d="m 0,0 0.561,1.338 1.28,1.826 2.867,3.288 9.074,8.84 11.162,9.837 10.83,8.953 8.082,6.185 1.953,1.295 0.838,0.391 0.109,-0.263 -0.48,-0.86 -1.781,-2.405 -6.037,-7.308 -8.034,-9.384 -8.281,-9.683 -6.785,-8.208 -2.83,-3.775 -0.725,-1.194 -0.838,-1.806 -0.701,-2.018 -0.679,-2.837 -0.412,-2.456 -0.321,-1.742 -0.163,-0.572 -0.166,-0.404 -0.198,-0.312 -0.239,-0.214 -0.287,-0.109 -0.352,0.013 -0.431,0.146 -0.498,0.269 -0.557,0.387 -0.815,0.693 -1.074,1.115 -1.256,1.599 -1.093,1.745 -0.764,1.552 -0.523,1.404 -0.332,1.286 -0.167,1.094 -0.044,1.086 L 0,0 z"
           style="fill:#6cc630;fill-opacity:1;fill-rule:nonzero;stroke:none"
           id="path64"
           inkscape:connector-curvature="0" />
      </g>
      <g
         id="g66"
         transform="matrix(1.9159362,0,0,1.9159362,682.0848,2795.0071)">
        <path
           d="m 0,0 0.098,0.965 0.461,1.418 1.191,2.666 4.074,7.427 5.215,8.475 5.176,7.842 3.961,5.537 0.994,1.209 0.461,0.416 0.121,-0.146 -0.14,-0.645 -0.67,-1.888 L 18.511,27.422 15.209,19.851 11.805,12.037 9.069,5.461 8,2.492 7.77,1.588 7.586,0.27 7.531,-1.158 7.653,-3.105 7.869,-4.756 8.004,-5.936 8.014,-6.332 7.985,-6.623 7.92,-6.861 7.809,-7.045 7.646,-7.17 7.418,-7.231 7.115,-7.224 6.744,-7.148 6.312,-7.01 5.656,-6.725 4.75,-6.222 l -1.115,0.779 -1.041,0.9 -0.792,0.844 -0.61,0.796 -0.464,0.757 -0.32,0.667 -0.24,0.686 L 0,0 z"
           style="fill:#718ccf;fill-opacity:1;fill-rule:nonzero;stroke:none"
           id="path68"
           inkscape:connector-curvature="0" />
      </g>
    </g>
    <g
       id="g3169"
       transform="matrix(0.51577476,0,0,0.51577476,-328.16757,409.28005)">
      <path
         d="m 92.84473,491.2417 0,8.22515 0.396711,-0.62152 c 3.431553,-5.53412 6.849879,-8.30449 10.274819,-8.30449 2.68442,0 5.47462,1.35543 8.39045,4.05968 l -3.74231,6.23498 c -2.47945,-2.3406 -4.76054,-3.50428 -6.86972,-3.50428 -2.287701,0 -4.264646,1.08434 -5.937445,3.26625 -1.672799,2.18192 -2.512505,4.77376 -2.512505,7.75571 l 0,18.74461 -7.134191,0 0,-35.85609 7.134191,0 z"
         style="fill:#6cc630;fill-opacity:1;fill-rule:nonzero;stroke:none"
         id="path282"
         inkscape:connector-curvature="0" />
      <path
         d="m 120.74478,505.5537 18.04375,0 c -0.17191,-2.83649 -1.02484,-5.02501 -2.53234,-6.55235 -1.5075,-1.53395 -3.53073,-2.30092 -6.07629,-2.30092 -2.54557,0 -4.6283,0.76697 -6.25482,2.30092 -1.62651,1.52734 -2.68441,3.71586 -3.1803,6.55235 m 25.06554,4.24481 -25.21761,0 c 0.18513,3.43155 1.33559,6.15564 3.45139,8.17887 2.1224,2.02983 4.84649,3.04145 8.1987,3.04145 4.67458,0 8.99873,-1.448 12.9394,-4.36383 l 0,6.94245 c -2.1753,1.45461 -4.34399,2.48606 -6.48623,3.11419 -2.14886,0.62151 -4.65475,0.93227 -7.54413,0.93227 -3.94728,0 -7.14742,-0.81987 -9.58719,-2.453 -2.43977,-1.63974 -4.39027,-3.83488 -5.8581,-6.60524 -1.47445,-2.77037 -2.20836,-5.97051 -2.20836,-9.60042 0,-5.46139 1.54717,-9.90456 4.63491,-13.31627 3.09435,-3.41833 7.11435,-5.1308 12.0468,-5.1308 4.75392,0 8.54913,1.66619 11.379,4.99195 2.82987,3.32576 4.25142,7.78215 4.25142,13.36917 l 0,0.89921 z"
         style="fill:#6cc630;fill-opacity:1;fill-rule:nonzero;stroke:none"
         id="path286"
         inkscape:connector-curvature="0" />
      <path
         d="m 154.30793,491.2417 0,-2.14224 c 0,-5.76554 1.22319,-10.06324 3.6828,-12.89973 2.453,-2.83649 5.39528,-4.24481 8.83344,-4.24481 1.47444,0 3.22659,0.23803 5.25643,0.70086 l 0,6.92922 c -1.13724,-0.40994 -2.23481,-0.6149 -3.2861,-0.6149 -2.77698,0 -4.70764,0.74053 -5.78537,2.21497 -1.07112,1.48767 -1.61329,4.1258 -1.61329,7.91439 l 0,2.14224 6.39366,0 0,6.38705 -6.39366,0 0,29.46904 -7.08791,0 0,-29.46904 -5.15063,0 0,-6.38705 5.15063,0 z"
         style="fill:#6cc630;fill-opacity:1;fill-rule:nonzero;stroke:none"
         id="path290"
         inkscape:connector-curvature="0" />
      <path
         inkscape:connector-curvature="0"
         id="path292"
         style="fill:#6cc630;fill-opacity:1;fill-rule:nonzero;stroke:none"
         d="m 173.59936,472.6545 7.0879,0 0,54.442 -7.0879,0 0,-54.442 z" />
      <path
         d="m 196.43929,505.5537 18.03714,0 c -0.17852,-2.83649 -1.02484,-5.02501 -2.52573,-6.55235 -1.5075,-1.53395 -3.53734,-2.30092 -6.07629,-2.30092 -2.55879,0 -4.63491,0.76697 -6.26143,2.30092 -1.63313,1.52734 -2.69102,3.71586 -3.17369,6.55235 m 25.05893,4.24481 -25.21761,0 c 0.17852,3.43155 1.33559,6.15564 3.44477,8.17887 2.1158,2.02983 4.85972,3.04145 8.20531,3.04145 4.67458,0 8.99213,-1.448 12.93279,-4.36383 l 0,6.94245 c -2.1753,1.45461 -4.33076,2.48606 -6.47962,3.11419 -2.13563,0.62151 -4.66135,0.93227 -7.54412,0.93227 -3.94728,0 -7.13419,-0.81987 -9.58719,-2.453 -2.43978,-1.63974 -4.39689,-3.83488 -5.86472,-6.60524 -1.46783,-2.77037 -2.20174,-5.97051 -2.20174,-9.60042 0,-5.46139 1.54717,-9.90456 4.63491,-13.31627 3.09434,-3.41833 7.11435,-5.1308 12.05341,-5.1308 4.74731,0 8.54251,1.66619 11.379,4.99195 2.82326,3.32576 4.24481,7.78215 4.24481,13.36917 l 0,0.89921 z"
         style="fill:#6cc630;fill-opacity:1;fill-rule:nonzero;stroke:none"
         id="path296"
         inkscape:connector-curvature="0" />
      <path
         d="m 256.06171,518.7193 0,7.02179 c -3.55718,1.32237 -7.03501,1.98356 -10.44012,1.98356 -5.61346,0 -10.08969,-1.65958 -13.42206,-4.99195 -3.3456,-3.31916 -5.0184,-7.77555 -5.0184,-13.36256 0,-5.63991 1.62651,-10.18887 4.87955,-13.64026 3.23981,-3.458 7.51768,-5.19031 12.82038,-5.19031 1.84471,0 3.49767,0.17852 4.96551,0.52895 1.46783,0.35043 3.28609,1.01162 5.43494,1.97034 l 0,7.55735 c -3.58362,-2.28109 -6.90278,-3.43156 -9.97068,-3.43156 -3.19352,0 -5.82504,1.13063 -7.8681,3.37205 -2.05629,2.25464 -3.09435,5.11096 -3.09435,8.59541 0,3.66297 1.1174,6.57218 3.3456,8.73426 2.21497,2.14885 5.21014,3.2332 8.97228,3.2332 2.7307,0 5.86472,-0.78681 9.39545,-2.38027"
         style="fill:#6cc630;fill-opacity:1;fill-rule:nonzero;stroke:none"
         id="path300"
         inkscape:connector-curvature="0" />
      <path
         d="m 259.10315,496.9339 13.33611,-13.09147 0,7.39866 11.33933,0 0,6.38705 -11.33933,0 0,17.55448 c 0,4.09935 1.69264,6.14902 5.10435,6.14902 2.53896,0 5.22998,-0.8397 8.05985,-2.53234 l 0,6.63169 c -2.72408,1.52734 -5.69941,2.29432 -8.926,2.29432 -3.23981,0 -5.94406,-0.95211 -8.09952,-2.8431 -0.67441,-0.57523 -1.23642,-1.21658 -1.6728,-1.93066 -0.44961,-0.71408 -0.81326,-1.64635 -1.1174,-2.81004 -0.29754,-1.15707 -0.44961,-3.35882 -0.44961,-6.60524 l 0,-15.90813 -6.23498,0 0,-0.69424 z"
         style="fill:#6cc630;fill-opacity:1;fill-rule:nonzero;stroke:none"
         id="path304"
         inkscape:connector-curvature="0" />
      <path
         inkscape:connector-curvature="0"
         id="path306"
         style="fill:#6cc630;fill-opacity:1;fill-rule:nonzero;stroke:none"
         d="m 290.87383,491.2404 7.0879,0 0,35.8561 -7.0879,0 0,-35.8561 z m 3.5043,-15.0883 c 1.1637,0 2.1621,0.4166 3.0018,1.2232 0.8264,0.8001 1.2364,1.7852 1.2364,2.9555 0,1.1439 -0.41,2.1356 -1.2364,2.9621 -0.8397,0.8398 -1.8381,1.2497 -3.0018,1.2497 -1.091,0 -2.0564,-0.4231 -2.8895,-1.2695 -0.8331,-0.8463 -1.243,-1.8183 -1.243,-2.9423 0,-1.0909 0.4099,-2.0563 1.243,-2.9092 0.8331,-0.8331 1.7985,-1.2695 2.8895,-1.2695" />
      <path
         d="m 324.96983,497.5633 c -3.40511,0 -6.19531,1.11079 -8.38383,3.3456 -2.18191,2.23481 -3.26626,5.0779 -3.26626,8.5359 0,3.43156 1.11741,6.23498 3.35221,8.39706 2.2282,2.1753 5.10435,3.25964 8.61525,3.25964 3.48445,0 6.32754,-1.09756 8.54913,-3.2927 2.22158,-2.20175 3.33237,-5.01179 3.33237,-8.43673 0,-3.4051 -1.15046,-6.22836 -3.47122,-8.46317 -2.30754,-2.23481 -5.22337,-3.3456 -8.72765,-3.3456 m 0.38349,-6.39366 c 5.46139,0 9.99051,1.75214 13.60719,5.28287 3.61669,3.51089 5.42834,7.94084 5.42834,13.26338 0,5.17708 -1.8381,9.46818 -5.50768,12.8865 -3.65635,3.41172 -8.27143,5.12419 -13.83861,5.12419 -5.37544,0 -9.86489,-1.73892 -13.48157,-5.21014 -3.60346,-3.46461 -5.42172,-7.79538 -5.42172,-12.98568 0,-5.25643 1.83809,-9.62686 5.48784,-13.12453 3.64974,-3.49106 8.22514,-5.23659 13.72621,-5.23659"
         style="fill:#6cc630;fill-opacity:1;fill-rule:nonzero;stroke:none"
         id="path310"
         inkscape:connector-curvature="0" />
      <path
         d="m 359.34613,491.2417 0,4.56218 c 3.16708,-3.50428 6.76393,-5.26304 10.79055,-5.26304 2.24142,0 4.31754,0.58185 6.23498,1.73892 1.93066,1.15708 3.38527,2.73731 4.38366,4.75392 1.005,2.01001 1.50089,5.20353 1.50089,9.56736 l 0,20.49675 -7.08791,0 0,-20.41741 c 0,-3.66958 -0.5554,-6.28787 -1.6728,-7.85488 -1.1174,-1.56701 -2.98856,-2.36043 -5.61347,-2.36043 -3.35221,0 -6.1953,1.67941 -8.5359,5.025 l 0,25.60772 -7.2532,0 0,-35.85609 7.2532,0 z"
         style="fill:#6cc630;fill-opacity:1;fill-rule:nonzero;stroke:none"
         id="path314"
         inkscape:connector-curvature="0" />
      <path
         d="m 390.41063,524.5271 0,-7.63669 c 1.99678,1.40171 4.04646,2.53895 6.14241,3.4051 2.08935,0.87277 3.8481,1.31576 5.27626,1.31576 1.47445,0 2.75715,-0.37026 3.81504,-1.09095 1.06451,-0.73392 1.60007,-1.60007 1.60007,-2.61169 0,-1.04467 -0.35043,-1.91082 -1.03145,-2.59846 -0.68763,-0.68763 -2.1753,-1.67941 -4.463,-2.98194 -4.5754,-2.54557 -7.57057,-4.71425 -8.99212,-6.5259 -1.40833,-1.81165 -2.12241,-3.77537 -2.12241,-5.90439 0,-2.75714 1.07774,-5.00517 3.21998,-6.74409 2.14224,-1.74553 4.9126,-2.61168 8.28465,-2.61168 3.50428,0 7.10774,0.99177 10.79055,2.96211 l 0,7.01518 c -4.20514,-2.53896 -7.64992,-3.81504 -10.32111,-3.81504 -1.38188,0 -2.48606,0.2843 -3.32576,0.87276 -0.84632,0.58845 -1.2827,1.36204 -1.2827,2.32737 0,0.82648 0.3901,1.61991 1.15046,2.37366 0.76698,0.76036 2.1158,1.66619 4.03985,2.73069 l 2.52572,1.44139 c 5.98373,3.37866 8.96568,7.12097 8.96568,11.22032 0,2.93566 -1.13724,5.34899 -3.44478,7.23337 -2.30753,1.87776 -5.25642,2.82326 -8.85988,2.82326 -2.13563,0 -4.03985,-0.23142 -5.69281,-0.68764 -1.66619,-0.4496 -3.75553,-1.28931 -6.27465,-2.5125"
         style="fill:#6cc630;fill-opacity:1;fill-rule:nonzero;stroke:none"
         id="path318"
         inkscape:connector-curvature="0" />
      <path
         d="m 433.78123,436.1068 0,192.51076"
         style="fill:#231f20;fill-opacity:1;fill-rule:nonzero;stroke:#2b428e;stroke-width:4.95889091;stroke-linecap:butt;stroke-linejoin:miter;stroke-miterlimit:4;stroke-opacity:1;stroke-dasharray:none"
         id="path322"
         inkscape:connector-curvature="0" />
      <path
         d="m 463.99923,541.0019 -5.02501,0 0,22.05715 c 2.18191,1.12401 4.463,1.6728 6.84327,1.6728 3.32576,0 6.03662,-1.14385 8.15242,-3.458 2.11579,-2.32076 3.16708,-5.2961 3.16708,-8.93262 0,-2.33398 -0.49589,-4.40349 -1.49428,-6.19531 -1.00501,-1.79181 -2.36044,-3.09435 -4.07952,-3.91422 -1.7323,-0.81987 -4.24481,-1.2298 -7.56396,-1.2298 m -12.26499,47.51279 0,-54.13787 12.41045,0 c 6.36061,0 11.30627,1.58023 14.85684,4.74731 3.54395,3.17369 5.30932,7.61025 5.30932,13.30306 0,5.37543 -1.66619,9.78554 -5.00518,13.25015 -3.32576,3.45139 -7.57718,5.17708 -12.74104,5.17708 -2.28109,0 -4.81343,-0.5025 -7.59041,-1.51411 l 0,19.17438 -7.23998,0 z"
         style="fill:#3d579a;fill-opacity:1;fill-rule:nonzero;stroke:none"
         id="path326"
         inkscape:connector-curvature="0" />
      <path
         d="m 499.70603,534.3742 0,8.22515 0.3901,-0.62813 c 3.42494,-5.52751 6.85649,-8.29788 10.28143,-8.29788 2.69103,0 5.47462,1.35543 8.38384,4.05307 l -3.7357,6.23498 c -2.47284,-2.3406 -4.75393,-3.50428 -6.86311,-3.50428 -2.28109,0 -4.26464,1.08434 -5.94406,3.27286 -1.67279,2.18853 -2.5125,4.77376 -2.5125,7.7491 l 0,18.75783 -7.12758,0 0,-35.8627 7.12758,0 z"
         style="fill:#3d579a;fill-opacity:1;fill-rule:nonzero;stroke:none"
         id="path330"
         inkscape:connector-curvature="0" />
      <path
         d="m 538.49903,540.6858 c -3.42494,0 -6.20853,1.1174 -8.39706,3.35882 -2.1753,2.23481 -3.27286,5.07791 -3.27286,8.52929 0,3.43156 1.12401,6.22837 3.35882,8.40367 2.22819,2.16869 5.10435,3.25303 8.60863,3.25303 3.48445,0 6.34077,-1.09095 8.55574,-3.2927 2.2282,-2.19513 3.33899,-5.00517 3.33899,-8.43673 0,-3.4051 -1.15707,-6.22175 -3.47122,-8.45656 -2.31415,-2.24142 -5.22337,-3.35882 -8.72104,-3.35882 m 0.38349,-6.38705 c 5.45478,0 9.9839,1.75875 13.59397,5.28287 3.61007,3.51751 5.42833,7.94745 5.42833,13.26999 0,5.17047 -1.83809,9.46818 -5.49445,12.8799 -3.67619,3.42494 -8.27143,5.12418 -13.84522,5.12418 -5.38205,0 -9.8715,-1.73891 -13.48157,-5.20353 -3.61008,-3.47122 -5.41511,-7.79537 -5.41511,-12.99229 0,-5.25643 1.82487,-9.62686 5.468,-13.11792 3.65636,-3.49767 8.23837,-5.2432 13.74605,-5.2432"
         style="fill:#3d579a;fill-opacity:1;fill-rule:nonzero;stroke:none"
         id="path334"
         inkscape:connector-curvature="0" />
      <path
         d="m 569.04633,519.2971 c 1.1703,0 2.16869,0.40993 3.00178,1.22319 0.82648,0.81326 1.24964,1.79843 1.24964,2.94228 0,1.20336 -0.39671,2.18852 -1.19674,2.99517 -0.78681,0.81326 -1.7852,1.21658 -2.97534,1.21658 -1.11079,0 -2.10918,-0.41655 -2.96872,-1.24964 -0.85293,-0.82648 -1.2827,-1.81826 -1.2827,-2.96211 0,-1.09096 0.42316,-2.04968 1.27609,-2.90261 0.83309,-0.84631 1.81165,-1.26286 2.89599,-1.26286 m -3.35221,15.07503 7.09452,0 0,40.96705 c 0,6.20192 -2.38688,10.5988 -7.14742,13.17082 l -5.28287,-5.19031 c 1.63313,-0.56201 2.94228,-1.56701 3.88777,-2.99517 0.97195,-1.42816 1.448,-3.08774 1.448,-4.98534 l 0,-40.96705 z"
         style="fill:#3d579a;fill-opacity:1;fill-rule:nonzero;stroke:none"
         id="path338"
         inkscape:connector-curvature="0" />
      <path
         d="m 588.76623,548.6789 18.04375,0 c -0.17852,-2.83649 -1.02484,-5.01179 -2.52573,-6.54574 -1.51411,-1.53395 -3.53734,-2.30092 -6.0829,-2.30092 -2.54557,0 -4.63491,0.76697 -6.25482,2.30092 -1.6199,1.53395 -2.6778,3.70925 -3.1803,6.54574 m 25.05893,4.24481 -25.211,0 c 0.18513,3.43155 1.32898,6.16225 3.44477,8.18548 2.1158,2.02984 4.84649,3.04145 8.20532,3.04145 4.67458,0 8.99212,-1.45461 12.9394,-4.36382 l 0,6.93583 c -2.1753,1.45461 -4.34399,2.49928 -6.48623,3.11419 -2.13563,0.62812 -4.65475,0.94549 -7.54413,0.94549 -3.94728,0 -7.14742,-0.81987 -9.58719,-2.45961 -2.43977,-1.63313 -4.39688,-3.84149 -5.86472,-6.60524 -1.46122,-2.76376 -2.20835,-5.97051 -2.20835,-9.60703 0,-5.46139 1.55378,-9.89794 4.64152,-13.31627 3.08773,-3.41172 7.10774,-5.12419 12.0468,-5.12419 4.75392,0 8.54251,1.66619 11.37239,4.99195 2.84309,3.32576 4.25142,7.78215 4.25142,13.36917 l 0,0.8926 z"
         style="fill:#3d579a;fill-opacity:1;fill-rule:nonzero;stroke:none"
         id="path342"
         inkscape:connector-curvature="0" />
      <path
         d="m 648.39523,561.8477 0,7.02179 c -3.55718,1.32898 -7.0284,1.98356 -10.44673,1.98356 -5.60685,0 -10.07647,-1.65958 -13.42207,-4.99195 -3.34559,-3.32577 -5.01178,-7.77555 -5.01178,-13.36256 0,-5.63991 1.62651,-10.18887 4.87955,-13.64687 3.23981,-3.45139 7.52429,-5.17708 12.82038,-5.17708 1.84471,0 3.50429,0.17852 4.96551,0.52895 1.46783,0.35042 3.28609,1.005 5.43494,1.96372 l 0,7.56396 c -3.57701,-2.2877 -6.90939,-3.43155 -9.97068,-3.43155 -3.19352,0 -5.82504,1.12401 -7.87471,3.37204 -2.0629,2.24142 -3.08113,5.11096 -3.08113,8.59541 0,3.66297 1.1174,6.56557 3.33899,8.72765 2.22158,2.15547 5.21675,3.2332 8.9789,3.2332 2.73069,0 5.8581,-0.79342 9.38883,-2.38027"
         style="fill:#3d579a;fill-opacity:1;fill-rule:nonzero;stroke:none"
         id="path346"
         inkscape:connector-curvature="0" />
      <path
         d="m 651.44343,540.0656 13.3295,-13.09147 0,7.39866 11.33272,0 0,6.40028 -11.33272,0 0,17.54125 c 0,4.09935 1.69925,6.14902 5.10435,6.14902 2.54557,0 5.22998,-0.8397 8.06646,-2.53234 l 0,6.62508 c -2.71747,1.53395 -5.70603,2.30093 -8.926,2.30093 -3.25303,0 -5.95067,-0.9455 -8.10613,-2.84971 -0.6678,-0.56862 -1.24303,-1.21658 -1.6728,-1.92405 -0.44961,-0.71408 -0.81326,-1.65297 -1.11079,-2.80343 -0.30415,-1.15707 -0.44961,-3.35882 -0.44961,-6.61185 l 0,-15.8949 -6.23498,0 0,-0.70747 z"
         style="fill:#3d579a;fill-opacity:1;fill-rule:nonzero;stroke:none"
         id="path350"
         inkscape:connector-curvature="0" />
      <path
         inkscape:connector-curvature="0"
         id="path352"
         style="fill:#3d579a;fill-opacity:1;fill-rule:nonzero;stroke:none"
         d="m 683.20153,534.3761 7.0945,0 0,35.8627 -7.0945,0 0,-35.8627 z m 3.5174,-15.0816 c 1.1638,0 2.1621,0.3967 2.9952,1.2033 0.8331,0.8067 1.2431,1.7985 1.2431,2.9688 0,1.1438 -0.41,2.129 -1.2431,2.9555 -0.8331,0.8331 -1.8314,1.2496 -2.9952,1.2496 -1.0909,0 -2.0629,-0.4165 -2.8828,-1.2695 -0.8329,-0.8397 -1.2495,-1.8248 -1.2495,-2.9356 0,-1.091 0.4166,-2.0563 1.2495,-2.9026 0.8199,-0.8529 1.7919,-1.2695 2.8828,-1.2695" />
      <path
         d="m 717.31593,540.6858 c -3.41833,0 -6.20192,1.1174 -8.38383,3.35882 -2.19514,2.23481 -3.27948,5.07791 -3.27948,8.52929 0,3.43156 1.12401,6.22837 3.35221,8.40367 2.24142,2.16869 5.11096,3.25303 8.61525,3.25303 3.47783,0 6.33415,-1.09095 8.55574,-3.2927 2.22819,-2.19513 3.33237,-5.00517 3.33237,-8.43673 0,-3.4051 -1.15707,-6.22175 -3.47784,-8.45656 -2.30753,-2.24142 -5.21675,-3.35882 -8.71442,-3.35882 m 0.38349,-6.38705 c 5.46139,0 9.9839,1.75875 13.60058,5.28287 3.61008,3.51751 5.42172,7.94745 5.42172,13.26999 0,5.17047 -1.83809,9.46818 -5.50106,12.8799 -3.65636,3.42494 -8.26482,5.12418 -13.832,5.12418 -5.38205,0 -9.8715,-1.73891 -13.48818,-5.20353 -3.61008,-3.47122 -5.41511,-7.79537 -5.41511,-12.99229 0,-5.25643 1.83148,-9.62686 5.47461,-13.11792 3.64975,-3.49767 8.23176,-5.2432 13.73944,-5.2432"
         style="fill:#3d579a;fill-opacity:1;fill-rule:nonzero;stroke:none"
         id="path356"
         inkscape:connector-curvature="0" />
      <path
         d="m 751.67983,534.3742 0,4.56218 c 3.17369,-3.5109 6.77054,-5.26304 10.80377,-5.26304 2.23481,0 4.31093,0.58185 6.22837,1.73231 1.93066,1.16369 3.39188,2.74392 4.39027,4.75392 0.99839,2.01662 1.50089,5.20353 1.50089,9.56736 l 0,20.50997 -7.08791,0 0,-20.43063 c 0,-3.65636 -0.56862,-6.27465 -1.6728,-7.85488 -1.12401,-1.56701 -3.00178,-2.34721 -5.62669,-2.34721 -3.34559,0 -6.1953,1.66618 -8.5359,5.01839 l 0,25.61433 -7.24659,0 0,-35.8627 7.24659,0 z"
         style="fill:#3d579a;fill-opacity:1;fill-rule:nonzero;stroke:none"
         id="path360"
         inkscape:connector-curvature="0" />
      <path
         d="m 782.75023,567.6596 0,-7.6433 c 2.00339,1.40832 4.04646,2.54556 6.14241,3.41171 2.08935,0.87277 3.8481,1.30915 5.28288,1.30915 1.47444,0 2.75053,-0.36365 3.80842,-1.09096 1.06451,-0.7273 1.60007,-1.60006 1.60007,-2.61168 0,-1.03806 -0.34381,-1.90421 -1.02484,-2.59185 -0.69424,-0.68763 -2.18191,-1.68602 -4.463,-2.98855 -4.58201,-2.53234 -7.57718,-4.71426 -8.99212,-6.5259 -1.41494,-1.79843 -2.12241,-3.76876 -2.12241,-5.89778 0,-2.75714 1.07113,-5.00517 3.21337,-6.7507 2.14224,-1.73231 4.91922,-2.60507 8.28465,-2.60507 3.50428,0 7.10113,0.98516 10.79716,2.96872 l 0,7.00857 c -4.21175,-2.54557 -7.64992,-3.82166 -10.32772,-3.82166 -1.38188,0 -2.48606,0.29092 -3.32576,0.87938 -0.85293,0.58845 -1.27609,1.35543 -1.27609,2.32076 0,0.83309 0.38349,1.63313 1.15046,2.38688 0.76037,0.75375 2.1158,1.65958 4.03324,2.72408 l 2.53234,1.44139 c 5.97711,3.37204 8.97228,7.11435 8.97228,11.22032 0,2.94227 -1.15707,5.34238 -3.458,7.22675 -2.29431,1.88438 -5.25642,2.82327 -8.85327,2.82327 -2.14224,0 -4.04646,-0.23142 -5.69942,-0.67441 -1.66619,-0.45622 -3.75553,-1.30254 -6.27465,-2.51912"
         style="fill:#3d579a;fill-opacity:1;fill-rule:nonzero;stroke:none"
         id="path364"
         inkscape:connector-curvature="0" />
      <path
         d="m 876.65963,570.584 -41.03317,0 0,-1.05128 c 1.58023,-1.54057 3.32576,-3.37205 5.22336,-5.50107 1.89099,-2.12902 4.33738,-4.95228 7.31933,-8.45656 1.38188,-1.58023 2.6778,-3.14063 3.88116,-4.67458 1.20997,-1.53395 2.24803,-3.02162 3.10096,-4.463 0.85954,-1.448 1.58023,-3.03485 2.18191,-4.77376 0.60168,-1.74553 0.89921,-3.53073 0.89921,-5.34238 0,-2.49267 -0.72069,-4.50929 -2.16208,-6.06307 -1.44138,-1.54718 -3.28609,-2.31415 -5.51428,-2.31415 -4.42333,0 -8.80699,2.28109 -13.17743,6.85649 l 0,-12.74104 c 1.53395,-0.99178 2.78359,-1.77859 3.78198,-2.38027 0.97856,-0.60168 2.12241,-1.17691 3.40511,-1.75214 1.29592,-0.57523 2.81665,-1.06451 4.58201,-1.48106 1.76537,-0.41654 3.68281,-0.62812 5.72587,-0.62812 3.30593,0 6.3011,0.67441 8.99873,2.01 2.71086,1.34221 4.83988,3.27287 6.38044,5.80521 1.55379,2.53895 2.32076,5.48784 2.32076,8.8665 0,2.4001 -0.35042,4.62168 -1.05128,6.70442 -0.70747,2.08273 -1.42816,3.75553 -2.18191,5.03162 -0.76037,1.27609 -1.75214,2.8431 -3.0084,4.72086 -2.22158,3.31915 -4.62168,6.48623 -7.16725,9.50785 l 17.49497,0 0,12.11953 z"
         style="fill:#7189c4;fill-opacity:1;fill-rule:nonzero;stroke:none"
         id="path368"
         inkscape:connector-curvature="0" />
      <path
         d="m 909.17033,543.2605 c 0,-4.78037 -0.32398,-8.70781 -0.97194,-11.7691 -0.64796,-3.0679 -2.22159,-4.60185 -4.71426,-4.60185 -1.69263,0 -2.96211,0.85293 -3.80181,2.57201 -0.84632,1.71247 -1.36204,3.69603 -1.5604,5.93083 -0.19174,2.2282 -0.29753,4.8531 -0.29753,7.86811 0,5.11758 0.32398,9.09791 0.96533,11.94762 0.62812,2.8431 2.20175,4.26465 4.69441,4.26465 2.51912,0 4.09274,-1.42155 4.72748,-4.26465 0.64135,-2.84971 0.95872,-6.83004 0.95872,-11.94762 m 15.39901,0 c 0,4.67458 -0.5554,8.78716 -1.67941,12.3245 -1.12402,3.52412 -2.65136,6.42011 -4.62169,8.66153 -1.95711,2.24142 -4.20514,3.92744 -6.71764,5.03162 -2.51912,1.10418 -5.21676,1.65296 -8.06647,1.65296 -2.83648,0 -5.50767,-0.54878 -8.0334,-1.65296 -2.51912,-1.10418 -4.74731,-2.7902 -6.70442,-5.05146 -1.94388,-2.26125 -3.48445,-5.14402 -4.61507,-8.64169 -1.13063,-3.51751 -1.69925,-7.61686 -1.69925,-12.3245 0,-4.72748 0.56862,-8.85327 1.69925,-12.35756 1.13062,-3.50428 2.66457,-6.40027 4.59523,-8.69459 1.93728,-2.28109 4.17209,-3.97372 6.70443,-5.0779 2.53234,-1.11079 5.21675,-1.65958 8.05323,-1.65958 2.84971,0 5.54735,0.54879 8.04002,1.63974 2.50589,1.09096 4.75392,2.77698 6.72426,5.08452 1.98355,2.30093 3.5175,5.21675 4.64152,8.7541 1.12401,3.52411 1.67941,7.63008 1.67941,12.31127"
         style="fill:#7189c4;fill-opacity:1;fill-rule:nonzero;stroke:none"
         id="path372"
         inkscape:connector-curvature="0" />
      <path
         inkscape:connector-curvature="0"
         id="path374"
         style="fill:#3d579a;fill-opacity:1;fill-rule:nonzero;stroke:none"
         d="m 958.28103,570.2104 -14.7708,0 0,-54.0188 14.7708,0 0,54.0188 z" />
      <path
         inkscape:connector-curvature="0"
         id="path376"
         style="fill:#3d579a;fill-opacity:1;fill-rule:nonzero;stroke:none"
         d="m 990.09073,570.2071 -14.7776,0 0,-54.0123 14.7776,0 0,54.0123 z" />
    </g>
  </g>
</svg>
