<?xml version="1.0" encoding="UTF-8" standalone="no"?>
<!-- Created with Inkscape (http://www.inkscape.org/) -->

<svg
   xmlns:dc="http://purl.org/dc/elements/1.1/"
   xmlns:cc="http://creativecommons.org/ns#"
   xmlns:rdf="http://www.w3.org/1999/02/22-rdf-syntax-ns#"
   xmlns:svg="http://www.w3.org/2000/svg"
   xmlns="http://www.w3.org/2000/svg"
   xmlns:xlink="http://www.w3.org/1999/xlink"
   xmlns:sodipodi="http://sodipodi.sourceforge.net/DTD/sodipodi-0.dtd"
   xmlns:inkscape="http://www.inkscape.org/namespaces/inkscape"
   width="319.64285"
   height="92.85714"
   id="svg2"
   version="1.1"
   inkscape:version="0.48.2 r9819"
   sodipodi:docname="New document 1">
  <defs
     id="defs4">
    <linearGradient
       id="linearGradient3814">
      <stop
         style="stop-color:#baba9b;stop-opacity:1;"
         offset="0"
         id="stop3816" />
      <stop
         style="stop-color:#6e6b52;stop-opacity:1;"
         offset="1"
         id="stop3818" />
    </linearGradient>
    <linearGradient
       id="linearGradient3799">
      <stop
         id="stop3801"
         offset="0"
         style="stop-color:#ffffff;stop-opacity:1;" />
      <stop
         id="stop3803"
         offset="1"
         style="stop-color:#ffffff;stop-opacity:0;" />
    </linearGradient>
    <linearGradient
       id="linearGradient3787">
      <stop
         style="stop-color:#ff0000;stop-opacity:1;"
         offset="0"
         id="stop3789" />
      <stop
         id="stop3805"
         offset="0.62337661"
         style="stop-color:#ff0000;stop-opacity:0.49803922;" />
      <stop
         style="stop-color:#ff0000;stop-opacity:0.13725491;"
         offset="1"
         id="stop3791" />
    </linearGradient>
    <radialGradient
       inkscape:collect="always"
       xlink:href="#linearGradient3787"
       id="radialGradient3793"
       cx="363.90744"
       cy="698.30371"
       fx="363.90744"
       fy="698.30371"
       r="25.001276"
       gradientUnits="userSpaceOnUse" />
    <radialGradient
       inkscape:collect="always"
       xlink:href="#linearGradient3799"
       id="radialGradient3797"
       gradientUnits="userSpaceOnUse"
       cx="363.90744"
       cy="698.30371"
       fx="363.90744"
       fy="698.30371"
       r="25.001276" />
    <linearGradient
       inkscape:collect="always"
       xlink:href="#linearGradient3814"
       id="linearGradient3820"
       x1="363.71875"
       y1="737.22546"
       x2="363.71875"
       y2="664.00909"
       gradientUnits="userSpaceOnUse" />
  </defs>
  <sodipodi:namedview
     id="base"
     pagecolor="#ffffff"
     bordercolor="#666666"
     borderopacity="1.0"
     inkscape:pageopacity="0.0"
     inkscape:pageshadow="2"
     inkscape:zoom="1.4"
     inkscape:cx="162.5084"
     inkscape:cy="189.52685"
     inkscape:document-units="px"
     inkscape:current-layer="layer1"
     showgrid="false"
     fit-margin-top="0"
     fit-margin-left="0"
     fit-margin-right="0"
     fit-margin-bottom="0"
     inkscape:window-width="1440"
     inkscape:window-height="842"
     inkscape:window-x="0"
     inkscape:window-y="30"
     inkscape:window-maximized="1" />
  <metadata
     id="metadata7">
    <rdf:RDF>
      <cc:Work
         rdf:about="">
        <dc:format>image/svg+xml</dc:format>
        <dc:type
           rdf:resource="http://purl.org/dc/dcmitype/StillImage" />
        <dc:title></dc:title>
      </cc:Work>
    </rdf:RDF>
  </metadata>
  <g
     inkscape:label="Layer 1"
     inkscape:groupmode="layer"
     id="layer1"
     transform="translate(-212.14285,-650.79071)">
    <rect
       style="color:#000000;fill:#000000;fill-opacity:1;fill-rule:nonzero;stroke:none;stroke-width:0;marker:none;visibility:visible;display:inline;overflow:visible;enable-background:accumulate"
       id="rect3822"
       width="319.64285"
       height="92.85714"
       x="212.14285"
       y="650.79071" />
    <g
       transform="matrix(1.2266786,0,0,1.5172332,-17.881533,-207.55672)"
       style="font-size:60px;font-style:italic;font-variant:normal;font-weight:bold;font-stretch:normal;text-align:start;writing-mode:lr-tb;text-anchor:start;color:#000000;fill:#ffffff;fill-opacity:1;fill-rule:nonzero;stroke:none;stroke-width:2;marker:none;visibility:visible;display:inline;overflow:visible;enable-background:accumulate;font-family:'Star Trek Future ';-inkscape-font-specification:'Star Trek Future '"
       id="flowRoot2996">
      <path
         d="m 225.00781,591.23903 -4.6582,0 c -2e-5,-1.62107 -0.0684,-2.76364 -0.20508,-3.42773 -0.25393,-1.28904 -1.05471,-2.11911 -2.40234,-2.49024 -0.8594,-0.23434 -2.3926,-0.35153 -4.59961,-0.35156 -3.10548,3e-5 -5.10744,0.0782 -6.00586,0.23437 -1.6797,0.27347 -2.75392,1.02542 -3.22266,2.25586 -0.27344,0.74222 -0.41016,1.71878 -0.41015,2.92969 -1e-5,1.54299 0.18554,2.72463 0.55664,3.54492 0.42968,0.91799 1.49413,1.4844 3.19336,1.69922 0.62498,0.0782 2.47069,0.1758 5.53711,0.29297 3.39841,0.13674 5.71286,0.32229 6.94335,0.55664 2.46092,0.50783 4.1406,1.709 5.03907,3.60352 0.56637,1.21095 0.84958,3.08595 0.84961,5.625 -3e-5,3.69141 -0.6055,6.2207 -1.81641,7.58789 -1.25003,1.40625 -3.03713,2.22656 -5.36133,2.46094 -1.77736,0.17578 -4.1797,0.26367 -7.20703,0.26367 -3.67189,0 -6.13282,-0.19532 -7.38281,-0.58594 -2.92969,-0.9375 -4.60938,-3.19336 -5.03906,-6.76758 -0.0977,-0.76171 -0.16602,-2.20702 -0.20508,-4.33594 l 4.6582,0 c -1e-5,0.66408 -1e-5,1.09376 0,1.28907 0.0195,1.67969 0.14648,2.91993 0.38086,3.7207 0.23437,0.78126 0.65429,1.37696 1.25977,1.78711 0.56639,0.39063 1.46483,0.60547 2.69531,0.64453 1.34764,0.0586 2.9492,0.0879 4.80469,0.0879 2.53904,0 4.33591,-0.0976 5.39062,-0.29297 1.05467,-0.19531 1.81638,-0.57616 2.28516,-1.14258 0.58591,-0.68358 0.87888,-2.40233 0.8789,-5.15625 -2e-5,-1.32811 -0.14651,-2.31444 -0.43945,-2.95898 -0.39065,-0.91795 -1.35744,-1.47459 -2.90039,-1.66992 -0.76174,-0.0976 -2.68557,-0.20506 -5.77148,-0.32227 -3.06642,-0.1367 -5.00002,-0.25389 -5.80079,-0.35156 -2.5586,-0.37108 -4.44336,-1.34764 -5.65429,-2.92969 -1.03516,-1.3281 -1.55274,-3.37888 -1.55274,-6.15234 0,-3.98435 0.88867,-6.66013 2.66602,-8.02735 1.36718,-1.05465 3.13476,-1.67965 5.30273,-1.875 1.54296,-0.11715 3.33007,-0.17574 5.36133,-0.17578 3.8867,4e-5 6.55271,0.24418 7.99805,0.73243 2.94919,0.97659 4.55075,3.32034 4.80469,7.03125 0.0195,0.41018 0.0293,1.29885 0.0293,2.66601"
         style="font-style:normal;font-weight:normal;letter-spacing:-0.96756995px;fill:#ffffff;fill-opacity:1;marker:none;font-family:Euro Caps;-inkscape-font-specification:Euro Caps"
         id="path3005"
         inkscape:connector-curvature="0" />
      <path
         d="m 236.16915,581.27809 0,34.27735 -4.6582,0 0,-34.27735 4.6582,0"
         style="font-style:normal;font-weight:normal;letter-spacing:-0.96756995px;fill:#ffffff;fill-opacity:1;marker:none;font-family:Euro Caps;-inkscape-font-specification:Euro Caps"
         id="path3007"
         inkscape:connector-curvature="0" />
      <path
         d="m 255.85429,598.0652 15.17578,0 c 0.0976,1.13283 0.14646,2.38283 0.14649,3.75 -3e-5,2.50001 -0.0293,4.30665 -0.0879,5.41992 -0.23441,4.06251 -1.78714,6.68946 -4.6582,7.88086 -1.48441,0.60547 -4.83401,0.90821 -10.04883,0.90821 -3.47658,0 -6.01564,-0.17578 -7.61719,-0.52735 -1.60157,-0.37109 -2.95899,-1.06445 -4.07227,-2.08007 -1.71875,-1.58203 -2.67578,-3.93555 -2.87109,-7.06055 -0.0781,-1.24999 -0.10742,-2.83202 -0.0879,-4.7461 0,-0.39061 -0.01,-1.60154 -0.0293,-3.63281 0,-0.48826 0,-0.95701 0,-1.40625 0,-3.06638 0.11719,-5.40036 0.35157,-7.00195 0.2539,-1.62107 0.70312,-3.05661 1.34765,-4.30664 1.15234,-2.24606 3.18359,-3.63278 6.09375,-4.16016 1.15233,-0.19528 3.291,-0.29293 6.41602,-0.29297 3.5156,4e-5 5.87888,0.0489 7.08984,0.14649 1.21091,0.0782 2.2656,0.2637 3.16406,0.55664 2.96872,1.03519 4.58005,3.27151 4.83399,6.70898 0.0586,0.6055 0.0879,1.81643 0.0879,3.63282 l -4.62891,0 c -0.0196,-2.55857 -0.22463,-4.25779 -0.61523,-5.09766 -0.41019,-0.87888 -1.50393,-1.41599 -3.28125,-1.61133 -1.26956,-0.13669 -3.62307,-0.20505 -7.06055,-0.20508 -2.81251,3e-5 -4.834,0.17581 -6.06445,0.52735 -1.38673,0.39065 -2.2754,1.54299 -2.66602,3.45703 -0.21485,0.99612 -0.35157,4.13088 -0.41015,9.40429 0.0195,4.14064 0.0488,6.57228 0.0879,7.29493 0.0781,1.75782 0.35155,3.08594 0.82031,3.98437 0.48827,0.87891 1.24999,1.45508 2.28516,1.72852 1.30858,0.3711 4.16014,0.55664 8.55468,0.55664 2.28514,0 3.98435,-0.10742 5.09766,-0.32227 1.13279,-0.23437 1.91404,-0.62499 2.34375,-1.17187 0.6445,-0.82031 0.96677,-2.96874 0.9668,-6.44532 -3e-5,-0.39061 -0.01,-0.96678 -0.0293,-1.72851 l -10.63477,0 0,-4.16016"
         style="font-style:normal;font-weight:normal;letter-spacing:-0.96756995px;fill:#ffffff;fill-opacity:1;marker:none;font-family:Euro Caps;-inkscape-font-specification:Euro Caps"
         id="path3009"
         inkscape:connector-curvature="0"
         sodipodi:nodetypes="cccccscccccsccccccccccccccccccscccccc" />
      <path
         d="m 368.82868,608.46559 -16.90429,0 -2.69532,7.08985 -4.95117,0 13.00782,-34.27735 5.91796,0 13.27149,34.27735 -4.92188,0 -2.72461,-7.08985 m -1.52343,-3.92578 -7.00196,-18.31054 -6.88476,18.31054 13.88672,0"
         style="font-style:normal;font-weight:normal;letter-spacing:-0.96756995px;fill:#ffffff;fill-opacity:1;marker:none;font-family:Euro Caps;-inkscape-font-specification:Euro Caps"
         id="path3011"
         inkscape:connector-curvature="0"
         sodipodi:nodetypes="ccccccccccccc" />
      <path
         d="m 380.51818,615.55544 0,-34.27735 17.28515,0 c 3.04685,4e-5 5.3613,0.51762 6.94336,1.55274 1.38669,0.89847 2.33396,2.26565 2.8418,4.10156 0.29294,1.09378 0.43942,2.52932 0.43945,4.30664 -3e-5,2.92971 -0.38089,5.05861 -1.14258,6.38672 -0.80081,1.44533 -2.26565,2.26564 -4.39453,2.46094 3.35935,0.21486 5.0488,2.38282 5.06836,6.5039 l 0,8.96485 -4.6582,0 0,-8.08594 c -3e-5,-2.10936 -0.47854,-3.55468 -1.43555,-4.33594 -0.99612,-0.72264 -2.48049,-1.06444 -4.45312,-1.02539 l -11.83594,0 0,13.44727 -4.6582,0 m 4.6582,-17.60742 11.36719,0 c 2.32419,0 4.00388,-0.31249 5.03906,-0.9375 1.19138,-0.72264 1.78708,-2.19725 1.78711,-4.42383 -3e-5,-3.02732 -0.27347,-4.93162 -0.82031,-5.71289 -0.68362,-0.957 -2.25589,-1.43552 -4.7168,-1.43555 l -12.65625,0 0,12.50977"
         style="font-style:normal;font-weight:normal;letter-spacing:-0.96756995px;fill:#ffffff;fill-opacity:1;marker:none;font-family:Euro Caps;-inkscape-font-specification:Euro Caps"
         id="path3013"
         inkscape:connector-curvature="0"
         sodipodi:nodetypes="ccccccccccccccccccscccccc" />
      <path
         d="m 427.06933,585.70192 0,29.85352 -4.6582,0 0,-29.85352 -11.33789,0 0,-4.42383 27.24609,0 0,4.42383 -11.25,0"
         style="font-style:normal;font-weight:normal;letter-spacing:-0.96756995px;fill:#ffffff;fill-opacity:1;marker:none;font-family:Euro Caps;-inkscape-font-specification:Euro Caps"
         id="path3015"
         inkscape:connector-curvature="0"
         sodipodi:nodetypes="ccccccccc" />
    </g>
    <path
       sodipodi:type="arc"
       style="color:#000000;fill:url(#radialGradient3793);fill-opacity:1;fill-rule:nonzero;stroke:none;stroke-width:2;marker:none;visibility:visible;display:inline;overflow:visible;enable-background:accumulate"
       id="path3017"
       sodipodi:cx="363.90744"
       sodipodi:cy="698.30371"
       sodipodi:rx="25.001276"
       sodipodi:ry="25.001276"
       d="m 388.90872,698.30371 c 0,13.80782 -11.19346,25.00128 -25.00128,25.00128 -13.80782,0 -25.00128,-11.19346 -25.00128,-25.00128 0,-13.80782 11.19346,-25.00128 25.00128,-25.00128 13.80782,0 25.00128,11.19346 25.00128,25.00128 z"
       transform="matrix(0.94286011,0,0,0.94286011,20.79365,39.901032)" />
    <path
       d="m 388.90872,698.30371 c 0,13.80782 -11.19346,25.00128 -25.00128,25.00128 -13.80782,0 -25.00128,-11.19346 -25.00128,-25.00128 0,-13.80782 11.19346,-25.00128 25.00128,-25.00128 13.80782,0 25.00128,11.19346 25.00128,25.00128 z"
       sodipodi:ry="25.001276"
       sodipodi:rx="25.001276"
       sodipodi:cy="698.30371"
       sodipodi:cx="363.90744"
       id="path3795"
       style="color:#000000;fill:url(#radialGradient3797);fill-opacity:1;fill-rule:nonzero;stroke:none;stroke-width:2;marker:none;visibility:visible;display:inline;overflow:visible;enable-background:accumulate"
       sodipodi:type="arc"
       transform="matrix(0.14141416,0,0,0.14141416,312.44578,599.55368)" />
    <path
       style="color:#000000;fill:url(#linearGradient3820);fill-opacity:1;fill-rule:nonzero;stroke:#959595;stroke-width:1;stroke-miterlimit:4;stroke-opacity:1;stroke-dasharray:none;marker:none;visibility:visible;display:inline;overflow:visible;enable-background:accumulate"
       d="m 363.90625,659.375 c -21.50036,0 -38.9375,17.43714 -38.9375,38.9375 0,21.50036 17.43714,38.90625 38.9375,38.90625 21.50036,0 38.9375,-17.40589 38.9375,-38.90625 0,-21.50036 -17.43714,-38.9375 -38.9375,-38.9375 z m 0,5.34375 c 18.54169,0 33.5625,15.05206 33.5625,33.59375 0,18.54169 -15.02081,33.5625 -33.5625,33.5625 -18.54169,0 -33.5625,-15.02081 -33.5625,-33.5625 0,-18.54169 15.02081,-33.59375 33.5625,-33.59375 z"
       id="path3807"
       inkscape:connector-curvature="0" />
  </g>
</svg>
