<?xml version="1.0" encoding="UTF-8" standalone="no"?>
<!-- Created with Inkscape (http://www.inkscape.org/) -->

<svg
   xmlns:dc="http://purl.org/dc/elements/1.1/"
   xmlns:cc="http://creativecommons.org/ns#"
   xmlns:rdf="http://www.w3.org/1999/02/22-rdf-syntax-ns#"
   xmlns:svg="http://www.w3.org/2000/svg"
   xmlns="http://www.w3.org/2000/svg"
   xmlns:sodipodi="http://sodipodi.sourceforge.net/DTD/sodipodi-0.dtd"
   xmlns:inkscape="http://www.inkscape.org/namespaces/inkscape"
   width="1057.5924"
   height="440.62558"
   id="svg3951"
   version="1.1"
   inkscape:version="0.48.2 r9819"
   sodipodi:docname="New document 7">
  <defs
     id="defs3953" />
  <sodipodi:namedview
     id="base"
     pagecolor="#ffffff"
     bordercolor="#666666"
     borderopacity="1.0"
     inkscape:pageopacity="0.0"
     inkscape:pageshadow="2"
     inkscape:zoom="0.35"
     inkscape:cx="528.73298"
     inkscape:cy="220.30768"
     inkscape:document-units="px"
     inkscape:current-layer="layer1"
     showgrid="false"
     fit-margin-top="0"
     fit-margin-left="0"
     fit-margin-right="0"
     fit-margin-bottom="0"
     inkscape:window-width="478"
     inkscape:window-height="424"
     inkscape:window-x="0"
     inkscape:window-y="30"
     inkscape:window-maximized="0" />
  <metadata
     id="metadata3956">
    <rdf:RDF>
      <cc:Work
         rdf:about="">
        <dc:format>image/svg+xml</dc:format>
        <dc:type
           rdf:resource="http://purl.org/dc/dcmitype/StillImage" />
        <dc:title></dc:title>
      </cc:Work>
    </rdf:RDF>
  </metadata>
  <g
     inkscape:label="Layer 1"
     inkscape:groupmode="layer"
     id="layer1"
     transform="translate(153.73298,-312.04427)">
    <g
       id="g3885"
       transform="matrix(4.0314022,0,0,4.0314022,-11899.925,1075.1818)">
      <path
         transform="translate(0,-1107.64)"
         inkscape:connector-curvature="0"
         id="path3052"
         d="m 2976.5361,919.84252 30.686,0 15.3429,26.5748 -15.3429,26.57481 -15.343,-26.57481 -30.6859,0 z"
         style="color:#000000;fill:#78bccf;fill-opacity:1;fill-rule:nonzero;stroke:#ffffff;stroke-width:3;stroke-linecap:round;stroke-linejoin:round;stroke-miterlimit:4;stroke-opacity:1;stroke-dasharray:none;stroke-dashoffset:0;marker:none;visibility:visible;display:inline;overflow:visible;enable-background:accumulate" />
      <path
         transform="translate(0,-1107.64)"
         inkscape:connector-curvature="0"
         id="path3054"
         d="m 2961.1932,946.41732 15.3429,26.57481 30.686,0 -15.343,-26.57481 z"
         style="fill:#78bccf;fill-opacity:1;stroke:#ffffff;stroke-width:3;stroke-linecap:round;stroke-linejoin:round;stroke-miterlimit:4;stroke-opacity:1;stroke-dasharray:none" />
      <path
         style="color:#000000;fill:#78bccf;fill-opacity:1;fill-rule:nonzero;stroke:#ffffff;stroke-width:3;stroke-linecap:round;stroke-linejoin:round;stroke-miterlimit:4;stroke-opacity:1;stroke-dasharray:none;stroke-dashoffset:0;marker:none;visibility:visible;display:inline;overflow:visible;enable-background:accumulate"
         d="m 3022.565,-108.07307 -15.343,26.574859 -30.6859,-5.9e-5 -15.343,-26.57474 30.6859,-2e-5 15.3429,-26.57477 z"
         id="path3853"
         inkscape:connector-curvature="0" />
      <path
         style="fill:#78bccf;fill-opacity:1;stroke:#ffffff;stroke-width:3;stroke-linecap:round;stroke-linejoin:round;stroke-miterlimit:4;stroke-opacity:1;stroke-dasharray:none"
         d="m 3007.2219,-134.6478 -30.6859,-6e-5 -15.343,26.57486 30.686,-3e-5 z"
         id="path3855"
         inkscape:connector-curvature="0" />
      <path
         inkscape:connector-curvature="0"
         id="path3857"
         d="m 2930.5072,-108.073 -15.343,-26.57485 15.343,-26.57474 30.6859,-6e-5 -15.3429,26.57478 15.343,26.57472 z"
         style="color:#000000;fill:#78bccf;fill-opacity:1;fill-rule:nonzero;stroke:#ffffff;stroke-width:3;stroke-linecap:round;stroke-linejoin:round;stroke-miterlimit:4;stroke-opacity:1;stroke-dasharray:none;stroke-dashoffset:0;marker:none;visibility:visible;display:inline;overflow:visible;enable-background:accumulate" />
      <path
         inkscape:connector-curvature="0"
         id="path3859"
         d="m 2961.1932,-108.07315 15.343,-26.57473 -15.343,-26.57486 -15.343,26.57487 z"
         style="fill:#78bccf;fill-opacity:1;stroke:#ffffff;stroke-width:3;stroke-linecap:round;stroke-linejoin:round;stroke-miterlimit:4;stroke-opacity:1;stroke-dasharray:none" />
      <g
         id="flowRoot3861"
         style="font-size:30px;font-style:normal;font-variant:normal;font-weight:bold;font-stretch:normal;text-align:center;writing-mode:lr-tb;text-anchor:middle;color:#000000;fill:#a40000;fill-opacity:1;fill-rule:nonzero;stroke:#ffffff;stroke-width:3;stroke-linecap:round;stroke-linejoin:round;stroke-miterlimit:4;stroke-opacity:1;stroke-dashoffset:0;marker:none;visibility:visible;display:inline;overflow:visible;enable-background:accumulate;font-family:Dimnah;-inkscape-font-specification:Dimnah Bold"
         transform="matrix(1.4543869,0,0,1.4543869,-1560.8311,-1540.1177)">
        <path
           inkscape:connector-curvature="0"
           id="path3096"
           style="font-weight:normal;fill:#a40000;stroke:none;marker:none;font-family:GeosansLight;-inkscape-font-specification:GeosansLight"
           d="m 3166.4959,973.00185 c -10e-5,-1.69999 -0.5801,-3.11999 -1.74,-4.26 -0.4201,-0.41998 -0.9701,-0.82998 -1.65,-1.23 -0.6801,-0.41998 -1.49,-0.83998 -2.43,-1.26 -1.5,-0.67998 -2.5,-1.21998 -3,-1.62 -0.88,-0.75998 -1.32,-1.64998 -1.32,-2.67 0,-1.13998 0.42,-2.05998 1.26,-2.76 0.78,-0.65998 1.76,-0.98997 2.94,-0.99 1.12,3e-5 2.0299,0.22003 2.73,0.66 0.5599,0.32002 1.0399,0.81002 1.44,1.47 l 1.17,-0.51 c -1.0401,-1.87997 -2.8201,-2.81997 -5.34,-2.82 -1.52,3e-5 -2.8,0.46003 -3.84,1.38 -1.06,0.90002 -1.59,2.09002 -1.59,3.57 0,1.48002 0.52,2.67002 1.56,3.57 0.62,0.56002 1.78,1.22002 3.48,1.98 0.9,0.40002 1.64,0.76002 2.22,1.08 0.5799,0.32001 1.0099,0.61001 1.29,0.87 1.0599,0.94001 1.5899,2.12001 1.59,3.54 -10e-5,1.50001 -0.4501,2.64001 -1.35,3.42 -0.8801,0.76001 -2.09,1.14001 -3.63,1.14 -2.7,10e-6 -4.4,-1.27999 -5.1,-3.84 l -1.23,0.42 c 0.94,3.10001 3.05,4.65 6.33,4.65 1.06,0 1.9799,-0.14 2.76,-0.42 2.2999,-0.85999 3.4499,-2.64999 3.45,-5.37" />
        <path
           sodipodi:nodetypes="ccccc"
           inkscape:connector-curvature="0"
           id="path3098"
           style="font-weight:normal;fill:#a40000;stroke:none;marker:none;font-family:GeosansLight;-inkscape-font-specification:GeosansLight"
           d="m 3171.8935,978.93066 0,-21.42 -1.2,0 0,21.42 1.2,0" />
        <path
           sodipodi:nodetypes="cccccscssccccsssscc"
           inkscape:connector-curvature="0"
           id="path3100"
           style="font-weight:normal;fill:#a40000;stroke:none;marker:none;font-family:GeosansLight;-inkscape-font-specification:GeosansLight"
           d="m 3198.8626,968.20185 -8.43,0 0,1.23 7.08,0 c -0.2001,1.92001 -1,3.64001 -2.4,5.16 -1.84,2.02001 -4.27,3.03001 -7.29,3.03 -2.82,10e-6 -5.17,-0.91999 -7.05,-2.76 -1.84,-1.83999 -2.76,-4.17999 -2.76,-7.02 0,-2.81998 0.93,-5.15998 2.79,-7.02 1.86,-1.85998 4.2,-2.78997 7.02,-2.79 3.46,3e-5 6.15,1.32002 8.07,3.96 l 0.99,-0.75 c -2.2,-2.93997 -5.22,-4.40997 -9.06,-4.41 -3.2,3e-5 -5.84,1.04003 -7.92,3.12 -2.06,2.06002 -3.09,4.69002 -3.09,7.89 0,3.24001 1.03,5.89001 3.09,7.95 2.04,2.04001 4.68,3.06 7.92,3.06 3.4,0 6.13,-1.08999 8.19,-3.27 1.8999,-1.99999 2.8499,-4.45999 2.85,-7.38" />
      </g>
      <g
         id="flowRoot3102"
         style="font-size:14px;font-style:normal;font-variant:normal;font-weight:normal;font-stretch:normal;text-align:center;writing-mode:lr-tb;text-anchor:middle;color:#000000;fill:none;stroke:#78bccf;stroke-width:2;stroke-miterlimit:4;stroke-opacity:1;marker:none;visibility:visible;display:inline;overflow:visible;enable-background:accumulate;font-family:GeosansLight;-inkscape-font-specification:GeosansLight"
         transform="matrix(1.4543869,0,0,1.4543869,-1475.253,-1505.868)">
        <path
           inkscape:connector-curvature="0"
           id="path3879"
           style="font-size:28px;stroke:#78bccf;marker:none"
           d="m 3165.2417,944.1524 c 0,-3.02399 -0.9613,-5.49732 -2.884,-7.42 -1.9413,-1.90398 -4.4147,-2.85598 -7.42,-2.856 -3.024,2e-5 -5.4973,0.96135 -7.42,2.884 -1.904,1.90401 -2.856,4.36801 -2.856,7.392 0,3.024 0.9613,5.49734 2.884,7.42 1.904,1.904 4.368,2.856 7.392,2.856 3.024,0 5.4973,-0.96133 7.42,-2.884 1.9227,-1.904 2.884,-4.368 2.884,-7.392 m -1.148,0 c 0,2.70667 -0.8493,4.90934 -2.548,6.608 -1.7173,1.68 -3.92,2.52 -6.608,2.52 -2.6693,0 -4.8627,-0.85867 -6.58,-2.576 -1.6987,-1.69866 -2.548,-3.88266 -2.548,-6.552 0,-2.66932 0.8587,-4.86265 2.576,-6.58 1.7173,-1.71732 3.9013,-2.57598 6.552,-2.576 2.688,2e-5 4.8907,0.85868 6.608,2.576 1.6987,1.69868 2.548,3.89201 2.548,6.58" />
        <path
           sodipodi:nodetypes="cccccccsccccsccccc"
           inkscape:connector-curvature="0"
           id="path3881"
           style="font-size:28px;stroke:#78bccf;marker:none"
           d="m 3180.5481,939.1124 c -1e-4,-1.51199 -0.5227,-2.71598 -1.568,-3.612 -1.0454,-0.89598 -2.3334,-1.34398 -3.864,-1.344 l -4.872,0 0,19.992 1.12,0 0,-9.996 3.752,0 c 1.5306,0 2.8186,-0.46666 3.864,-1.4 1.0453,-0.89599 1.5679,-2.10932 1.568,-3.64 m -1.148,0 c -10e-5,1.21335 -0.4107,2.17468 -1.232,2.884 -0.8214,0.67201 -1.8481,1.008 -3.08,1.008 l -3.724,0 0,-7.7 3.724,0 c 1.2506,2e-5 2.2586,0.31735 3.024,0.952 0.8586,0.69068 1.2879,1.64268 1.288,2.856" />
        <path
           sodipodi:nodetypes="cccccscccccccsccccscsccscc"
           inkscape:connector-curvature="0"
           id="path3883"
           style="font-size:28px;stroke:#78bccf;marker:none"
           d="m 3197.079,948.9684 c 0,-1.58666 -0.5413,-2.91199 -1.624,-3.976 -0.392,-0.39199 -0.9053,-0.77466 -1.54,-1.148 -0.6347,-0.39199 -1.3907,-0.78399 -2.268,-1.176 -1.4,-0.63466 -2.3333,-1.13866 -2.8,-1.512 -0.8213,-0.70932 -1.232,-1.53999 -1.232,-2.492 0,-1.06399 0.392,-1.92265 1.176,-2.576 0.728,-0.61598 1.6427,-0.92398 2.744,-0.924 1.0453,2e-5 1.8947,0.20535 2.548,0.616 0.5227,0.29868 0.9707,0.75602 1.344,1.372 l 1.092,-0.476 c -0.9707,-1.75465 -2.632,-2.63198 -4.984,-2.632 -1.4187,2e-5 -2.6133,0.42935 -3.584,1.288 -0.9893,0.84002 -1.484,1.95068 -1.484,3.332 0,1.38135 0.4853,2.49201 1.456,3.332 0.5787,0.52268 1.6613,1.13868 3.248,1.848 0.84,0.37334 1.5307,0.70934 2.072,1.008 0.5413,0.29867 0.9427,0.56934 1.204,0.812 0.9893,0.87734 1.484,1.97867 1.484,3.304 0,1.4 -0.42,2.464 -1.26,3.192 -0.8213,0.70933 -1.9507,1.064 -3.388,1.064 -2.52,0 -4.1067,-1.19467 -4.76,-3.584 l -1.148,0.392 c 0.8774,2.89333 2.8467,4.34 5.908,4.34 0.9893,0 1.848,-0.13067 2.576,-0.392 2.1467,-0.80267 3.22,-2.47333 3.22,-5.012" />
      </g>
    </g>
  </g>
</svg>
